M48
;Layer_Color=6321
;FILE_FORMAT=4:3
METRIC,LZ
;TYPE=PLATED
T1F00S00C0.300
T2F00S00C0.700
;TYPE=NON_PLATED
T3F00S00C0.711
%
T01
X00374Y00337
X003925Y00324
X003744Y0037084
X0040894Y0037846
X0040005Y0038862
X0041681Y0039421
X0045695Y0038608
X00446Y0036875
X004515Y0032614
X0047396Y0034163
X0048725Y0033075
X0049581Y003716
X0050674
X005155Y003765
X0052807Y0037541
X0052578Y0039548
X0055875Y003925
X0055575Y0035865
X00557Y0035075
X0055925Y0033675
X0054725Y0033
X00578Y0034625
X0060875Y00343
X006063Y0036246
X0062825Y00367
X0065278Y0036906
X0065202Y0034112
X006445Y003245
X0067375Y00325
X006858Y0034188
X0068478Y0036906
X0070975Y0035525
X007095Y0032675
X0070975Y0038625
X006235Y003965
X0058141Y0037821
X0060249Y0032334
X004945Y003895
X0040437Y0035484
X004064Y0033528
X004105Y0032375
X0040919Y0040742
X0040005Y0042926
X0044874Y0042842
X0045974
X0047074
Y0043942
Y0045042
X0045974
Y0043942
X0044874
Y0045042
X0043688Y0048387
X0044275Y004975
X004265Y005
X004225Y00514
X0040386Y0051308
X0040996Y0054737
X0039878Y0057277
X0043561Y0056388
X0047117Y0057023
X0046678Y0057853
X0045593Y0058801
X0046584Y0061366
X0047752
X0047307Y0064046
X004625Y00659
X0048875Y0065925
X005115Y0064575
X0053025Y00658
X0054225Y006465
X00554Y0065775
X0057125Y006585
X00566Y0064675
X0058775Y0064625
X0059925Y0063725
X0061Y0064675
X006205Y00659
X0063225Y006475
X006445Y006585
X0065575Y0064725
X0065837Y0062509
X0066325Y005945
X0064425
X006255Y006005
X0060725
X005895
X0057325
X005525Y0059925
X005345Y00589
X005355Y0056975
X005195
X0050275
X0049403Y0057912
X0051333Y0058928
X00525Y0060025
X0053475Y0063075
X0055625Y0056975
X005885Y00569
X00611Y0056775
X006295Y00567
Y005515
X006475Y00552
X0064825Y0056675
X0066825Y0056625
X0066775Y005515
X00651Y0052705
X0062751Y0052685
X0062175Y0050875
X0059975Y0051125
X0059487Y0052273
X0058674Y0053086
X0058233Y0051104
X0055825Y00527
X0054075Y0054875
X0052959Y0054991
X0051153Y0055372
X0049572Y005389
X0048472
Y005279
X0049572
X004953Y0048641
X0049225Y0047
X0048133Y0047422
X004795Y00496
X0046925Y00507
X0045025Y0052225
X0042367Y0047342
X0050165Y0046101
X005174Y0045212
X0052275Y0048075
X0052324Y0049403
X0051054Y0049149
X0050317Y004252
X0050825Y0040386
X0053475Y00425
X0055475Y004405
X0056032Y0046761
X00589Y0045925
X005995Y004835
X0062778Y0048952
X0065075Y00492
Y0046126
X0062475Y00459
X0062525Y004245
X00651Y0043104
Y0040157
X006858Y0040005
Y004318
Y0046355
Y004953
Y0052705
X0071Y0054275
Y0050575
X0071025Y004775
X0071Y0044625
X0070975Y0041675
X0069825Y0057875
X0070925Y0061025
X007085Y0062275
X0068656Y0064389
X0067225Y0065975
X007015Y0066
X0059625Y0065875
X0060579Y0055042
X0061225Y00543
X0043917Y0061341
X0044577Y0062941
X0042494Y0062992
X0040742Y0061468
X00412Y0065875
X00435Y00659
X003935Y0065875
X003735
X00373Y006355
X0038862Y0059182
X00374Y005725
X0037325Y00538
X00374Y0049875
X0037338Y0046888
X003749Y0042469
X0037643Y0040132
T02
X0040633Y0063805
X0038633
T03
X0041656Y0044577
X0036576Y0043561
Y0045593
M30
