G04 Layer_Color=20142*
%FSLAX43Y43*%
%MOMM*%
G71*
G01*
G75*
%ADD67C,0.100*%
%ADD69C,0.500*%
%ADD80R,0.753X1.003*%
%ADD81R,0.603X1.003*%
%ADD82R,0.403X0.403*%
%ADD83C,0.403*%
%ADD84R,0.903X0.753*%
%ADD85R,0.703X0.903*%
%ADD86R,0.903X0.703*%
%ADD87R,1.203X1.803*%
%ADD88R,0.753X0.903*%
%ADD89O,0.403X1.003*%
%ADD90O,1.003X0.403*%
%ADD91R,3.903X3.903*%
%ADD92C,0.990*%
%ADD93R,1.203X0.803*%
%ADD94R,1.803X1.203*%
%ADD95R,0.453X1.203*%
%ADD96R,1.203X0.453*%
%ADD97R,0.903X1.003*%
G04:AMPARAMS|DCode=98|XSize=0.753mm|YSize=0.903mm|CornerRadius=0mm|HoleSize=0mm|Usage=FLASHONLY|Rotation=135.000|XOffset=0mm|YOffset=0mm|HoleType=Round|Shape=Rectangle|*
%AMROTATEDRECTD98*
4,1,4,0.586,0.053,-0.053,-0.586,-0.586,-0.053,0.053,0.586,0.586,0.053,0.0*
%
%ADD98ROTATEDRECTD98*%

%ADD99R,0.703X1.203*%
%ADD100R,0.903X1.103*%
%ADD101R,1.003X1.003*%
%ADD102R,2.803X2.803*%
%ADD103O,1.003X0.453*%
%ADD104O,0.453X1.003*%
G04:AMPARAMS|DCode=105|XSize=0.753mm|YSize=0.903mm|CornerRadius=0mm|HoleSize=0mm|Usage=FLASHONLY|Rotation=250.000|XOffset=0mm|YOffset=0mm|HoleType=Round|Shape=Rectangle|*
%AMROTATEDRECTD105*
4,1,4,-0.296,0.508,0.553,0.199,0.296,-0.508,-0.553,-0.199,-0.296,0.508,0.0*
%
%ADD105ROTATEDRECTD105*%

%ADD106R,1.003X1.203*%
%ADD107R,1.203X1.003*%
%ADD108R,1.253X1.203*%
%ADD109R,2.403X1.253*%
%ADD110R,1.203X1.253*%
%ADD111R,1.253X2.403*%
%ADD112R,0.504X0.724*%
%ADD113R,0.504X0.694*%
G04:AMPARAMS|DCode=114|XSize=0.2mm|YSize=0.15mm|CornerRadius=0mm|HoleSize=0mm|Usage=FLASHONLY|Rotation=225.000|XOffset=0mm|YOffset=0mm|HoleType=Round|Shape=Rectangle|*
%AMROTATEDRECTD114*
4,1,4,0.018,0.124,0.124,0.018,-0.018,-0.124,-0.124,-0.018,0.018,0.124,0.0*
%
%ADD114ROTATEDRECTD114*%

%ADD115R,0.360X0.180*%
%ADD116P,0.325X4X270.0*%
G04:AMPARAMS|DCode=117|XSize=0.355mm|YSize=0.13mm|CornerRadius=0mm|HoleSize=0mm|Usage=FLASHONLY|Rotation=225.000|XOffset=0mm|YOffset=0mm|HoleType=Round|Shape=Rectangle|*
%AMROTATEDRECTD117*
4,1,4,0.080,0.171,0.171,0.080,-0.080,-0.171,-0.171,-0.080,0.080,0.171,0.0*
%
%ADD117ROTATEDRECTD117*%

%ADD118R,0.460X0.130*%
%ADD119R,0.600X0.310*%
G04:AMPARAMS|DCode=120|XSize=0.355mm|YSize=0.13mm|CornerRadius=0mm|HoleSize=0mm|Usage=FLASHONLY|Rotation=135.000|XOffset=0mm|YOffset=0mm|HoleType=Round|Shape=Rectangle|*
%AMROTATEDRECTD120*
4,1,4,0.171,-0.080,0.080,-0.171,-0.171,0.080,-0.080,0.171,0.171,-0.080,0.0*
%
%ADD120ROTATEDRECTD120*%

G04:AMPARAMS|DCode=121|XSize=0.2mm|YSize=0.15mm|CornerRadius=0mm|HoleSize=0mm|Usage=FLASHONLY|Rotation=135.000|XOffset=0mm|YOffset=0mm|HoleType=Round|Shape=Rectangle|*
%AMROTATEDRECTD121*
4,1,4,0.124,-0.018,0.018,-0.124,-0.124,0.018,-0.018,0.124,0.124,-0.018,0.0*
%
%ADD121ROTATEDRECTD121*%

%ADD122P,0.820X4X90.0*%
%ADD123C,1.203*%
%ADD124C,0.753*%
G36*
X66478Y36571D02*
X66484D01*
X66490Y36570D01*
X66506Y36567D01*
X66523Y36563D01*
X66541Y36556D01*
X66560Y36546D01*
X66569Y36541D01*
X66577Y36534D01*
X66578Y36533D01*
X66578Y36532D01*
X66581Y36530D01*
X66583Y36528D01*
X66588Y36523D01*
X66591Y36518D01*
X66600Y36507D01*
X66609Y36492D01*
X66617Y36474D01*
X66625Y36453D01*
X66630Y36430D01*
X66560Y36425D01*
Y36425D01*
X66559Y36426D01*
X66558Y36431D01*
X66555Y36439D01*
X66552Y36448D01*
X66549Y36458D01*
X66544Y36467D01*
X66538Y36476D01*
X66532Y36484D01*
X66531Y36486D01*
X66527Y36489D01*
X66522Y36494D01*
X66513Y36500D01*
X66503Y36504D01*
X66491Y36509D01*
X66477Y36513D01*
X66462Y36514D01*
X66457D01*
X66450Y36514D01*
X66443Y36512D01*
X66433Y36509D01*
X66423Y36506D01*
X66413Y36502D01*
X66403Y36495D01*
X66402Y36495D01*
X66397Y36491D01*
X66392Y36486D01*
X66384Y36477D01*
X66376Y36467D01*
X66367Y36456D01*
X66359Y36441D01*
X66351Y36425D01*
Y36424D01*
X66350Y36422D01*
X66349Y36420D01*
X66347Y36416D01*
X66346Y36411D01*
X66345Y36406D01*
X66343Y36399D01*
X66341Y36391D01*
X66339Y36382D01*
X66337Y36372D01*
X66336Y36361D01*
X66335Y36350D01*
X66333Y36337D01*
X66332Y36323D01*
X66332Y36309D01*
Y36294D01*
X66332Y36295D01*
X66336Y36300D01*
X66341Y36306D01*
X66349Y36314D01*
X66357Y36324D01*
X66368Y36333D01*
X66379Y36342D01*
X66393Y36351D01*
X66393D01*
X66394Y36351D01*
X66399Y36354D01*
X66407Y36356D01*
X66416Y36360D01*
X66428Y36364D01*
X66441Y36366D01*
X66455Y36369D01*
X66470Y36370D01*
X66476D01*
X66481Y36369D01*
X66488Y36368D01*
X66495Y36367D01*
X66503Y36365D01*
X66511Y36363D01*
X66530Y36357D01*
X66540Y36353D01*
X66550Y36347D01*
X66560Y36342D01*
X66570Y36335D01*
X66580Y36327D01*
X66589Y36318D01*
X66590Y36317D01*
X66592Y36315D01*
X66594Y36313D01*
X66597Y36309D01*
X66601Y36303D01*
X66605Y36297D01*
X66609Y36290D01*
X66614Y36281D01*
X66619Y36272D01*
X66623Y36263D01*
X66627Y36251D01*
X66631Y36239D01*
X66634Y36227D01*
X66636Y36213D01*
X66638Y36199D01*
X66639Y36184D01*
Y36184D01*
Y36182D01*
Y36179D01*
Y36175D01*
X66638Y36170D01*
Y36165D01*
X66635Y36152D01*
X66633Y36137D01*
X66629Y36120D01*
X66623Y36102D01*
X66615Y36085D01*
Y36084D01*
X66614Y36083D01*
X66612Y36081D01*
X66611Y36077D01*
X66606Y36069D01*
X66598Y36058D01*
X66589Y36047D01*
X66578Y36035D01*
X66565Y36024D01*
X66551Y36014D01*
X66551D01*
X66550Y36013D01*
X66547Y36012D01*
X66544Y36011D01*
X66536Y36007D01*
X66525Y36002D01*
X66511Y35998D01*
X66495Y35994D01*
X66478Y35991D01*
X66459Y35990D01*
X66455D01*
X66451Y35991D01*
X66444D01*
X66437Y35992D01*
X66429Y35993D01*
X66419Y35996D01*
X66409Y35998D01*
X66397Y36002D01*
X66386Y36006D01*
X66374Y36011D01*
X66362Y36017D01*
X66351Y36025D01*
X66339Y36033D01*
X66327Y36043D01*
X66317Y36054D01*
X66316Y36055D01*
X66314Y36058D01*
X66312Y36061D01*
X66309Y36067D01*
X66304Y36074D01*
X66300Y36082D01*
X66295Y36093D01*
X66290Y36105D01*
X66284Y36119D01*
X66279Y36134D01*
X66275Y36151D01*
X66271Y36170D01*
X66267Y36192D01*
X66264Y36215D01*
X66262Y36239D01*
X66262Y36266D01*
Y36267D01*
Y36267D01*
Y36270D01*
Y36273D01*
X66262Y36281D01*
Y36293D01*
X66263Y36306D01*
X66265Y36322D01*
X66267Y36339D01*
X66269Y36358D01*
X66272Y36377D01*
X66276Y36397D01*
X66281Y36417D01*
X66287Y36437D01*
X66295Y36456D01*
X66303Y36474D01*
X66312Y36491D01*
X66323Y36506D01*
X66323Y36507D01*
X66325Y36509D01*
X66328Y36512D01*
X66332Y36517D01*
X66337Y36522D01*
X66344Y36527D01*
X66352Y36533D01*
X66360Y36539D01*
X66370Y36545D01*
X66381Y36551D01*
X66393Y36556D01*
X66406Y36562D01*
X66420Y36566D01*
X66434Y36569D01*
X66450Y36571D01*
X66467Y36572D01*
X66473D01*
X66478Y36571D01*
D02*
G37*
G36*
X63281D02*
X63292Y36569D01*
X63304Y36567D01*
X63317Y36564D01*
X63331Y36560D01*
X63344Y36553D01*
X63345D01*
X63346Y36552D01*
X63350Y36550D01*
X63357Y36546D01*
X63365Y36540D01*
X63374Y36532D01*
X63384Y36523D01*
X63393Y36512D01*
X63402Y36500D01*
X63403Y36498D01*
X63406Y36494D01*
X63409Y36486D01*
X63415Y36476D01*
X63420Y36463D01*
X63427Y36449D01*
X63432Y36433D01*
X63437Y36415D01*
Y36414D01*
X63438Y36412D01*
X63439Y36410D01*
X63440Y36406D01*
X63441Y36401D01*
X63441Y36395D01*
X63443Y36388D01*
X63444Y36379D01*
X63445Y36370D01*
X63446Y36360D01*
X63447Y36349D01*
X63449Y36337D01*
X63450Y36324D01*
Y36311D01*
X63450Y36296D01*
Y36281D01*
Y36280D01*
Y36277D01*
Y36271D01*
Y36264D01*
X63450Y36255D01*
Y36245D01*
X63449Y36235D01*
X63448Y36223D01*
X63445Y36197D01*
X63441Y36170D01*
X63436Y36143D01*
X63433Y36131D01*
X63429Y36119D01*
Y36118D01*
X63428Y36116D01*
X63427Y36113D01*
X63425Y36109D01*
X63423Y36103D01*
X63420Y36097D01*
X63413Y36083D01*
X63405Y36068D01*
X63394Y36052D01*
X63382Y36037D01*
X63367Y36023D01*
X63366D01*
X63366Y36021D01*
X63363Y36020D01*
X63360Y36018D01*
X63356Y36016D01*
X63352Y36012D01*
X63339Y36007D01*
X63325Y36001D01*
X63307Y35995D01*
X63287Y35992D01*
X63264Y35990D01*
X63256D01*
X63250Y35991D01*
X63244Y35992D01*
X63236Y35993D01*
X63227Y35995D01*
X63217Y35998D01*
X63207Y36001D01*
X63196Y36004D01*
X63185Y36009D01*
X63175Y36015D01*
X63164Y36021D01*
X63153Y36030D01*
X63143Y36039D01*
X63134Y36049D01*
X63134Y36049D01*
X63132Y36052D01*
X63129Y36056D01*
X63125Y36063D01*
X63121Y36070D01*
X63117Y36080D01*
X63111Y36091D01*
X63106Y36105D01*
X63101Y36119D01*
X63097Y36137D01*
X63092Y36156D01*
X63088Y36177D01*
X63083Y36200D01*
X63081Y36225D01*
X63079Y36252D01*
X63078Y36281D01*
Y36281D01*
Y36285D01*
Y36291D01*
Y36297D01*
X63079Y36306D01*
Y36316D01*
X63080Y36327D01*
X63081Y36339D01*
X63083Y36365D01*
X63088Y36392D01*
X63092Y36419D01*
X63096Y36431D01*
X63099Y36444D01*
Y36444D01*
X63100Y36446D01*
X63101Y36449D01*
X63103Y36453D01*
X63105Y36459D01*
X63108Y36465D01*
X63115Y36479D01*
X63123Y36494D01*
X63134Y36509D01*
X63146Y36525D01*
X63161Y36538D01*
X63162D01*
X63162Y36540D01*
X63165Y36542D01*
X63168Y36543D01*
X63172Y36546D01*
X63177Y36549D01*
X63190Y36556D01*
X63204Y36561D01*
X63222Y36567D01*
X63242Y36570D01*
X63264Y36572D01*
X63272D01*
X63281Y36571D01*
D02*
G37*
G36*
X65765Y36171D02*
X65549D01*
Y36241D01*
X65765D01*
Y36171D01*
D02*
G37*
G36*
X67866Y37871D02*
X67872Y37871D01*
X67880Y37869D01*
X67888Y37867D01*
X67897Y37865D01*
X67906Y37861D01*
X67916Y37857D01*
X67926Y37852D01*
X67936Y37847D01*
X67946Y37840D01*
X67956Y37832D01*
X67966Y37823D01*
X67975Y37812D01*
Y37863D01*
X68039D01*
Y37506D01*
Y37505D01*
Y37502D01*
Y37497D01*
Y37490D01*
X68038Y37483D01*
Y37474D01*
X68038Y37464D01*
X68037Y37453D01*
X68034Y37431D01*
X68031Y37408D01*
X68029Y37397D01*
X68026Y37387D01*
X68023Y37378D01*
X68020Y37370D01*
Y37369D01*
X68019Y37369D01*
X68015Y37364D01*
X68011Y37356D01*
X68005Y37347D01*
X67996Y37337D01*
X67985Y37327D01*
X67972Y37316D01*
X67957Y37307D01*
X67956D01*
X67955Y37306D01*
X67953Y37304D01*
X67950Y37304D01*
X67945Y37301D01*
X67940Y37299D01*
X67928Y37295D01*
X67913Y37290D01*
X67895Y37287D01*
X67875Y37284D01*
X67852Y37283D01*
X67845D01*
X67840Y37284D01*
X67834D01*
X67827Y37285D01*
X67819Y37285D01*
X67810Y37287D01*
X67791Y37291D01*
X67771Y37297D01*
X67751Y37305D01*
X67733Y37317D01*
X67732Y37318D01*
X67731Y37318D01*
X67726Y37323D01*
X67719Y37331D01*
X67711Y37341D01*
X67703Y37355D01*
X67695Y37373D01*
X67693Y37383D01*
X67691Y37393D01*
X67689Y37404D01*
Y37416D01*
X67758Y37407D01*
Y37406D01*
X67759Y37402D01*
X67760Y37397D01*
X67762Y37389D01*
X67765Y37382D01*
X67769Y37374D01*
X67774Y37367D01*
X67781Y37361D01*
X67782Y37360D01*
X67786Y37358D01*
X67792Y37355D01*
X67800Y37351D01*
X67810Y37347D01*
X67822Y37344D01*
X67837Y37341D01*
X67852Y37341D01*
X67861D01*
X67869Y37341D01*
X67880Y37343D01*
X67892Y37345D01*
X67904Y37349D01*
X67917Y37354D01*
X67927Y37360D01*
X67928Y37361D01*
X67931Y37364D01*
X67936Y37369D01*
X67942Y37374D01*
X67948Y37383D01*
X67954Y37392D01*
X67959Y37402D01*
X67964Y37415D01*
Y37415D01*
X67964Y37419D01*
X67965Y37425D01*
X67966Y37434D01*
X67967Y37439D01*
Y37446D01*
X67968Y37453D01*
Y37462D01*
Y37471D01*
X67968Y37481D01*
Y37492D01*
Y37504D01*
X67968Y37503D01*
X67966Y37502D01*
X67964Y37499D01*
X67960Y37496D01*
X67956Y37492D01*
X67950Y37487D01*
X67944Y37482D01*
X67937Y37477D01*
X67920Y37467D01*
X67901Y37458D01*
X67890Y37455D01*
X67879Y37452D01*
X67866Y37451D01*
X67854Y37450D01*
X67850D01*
X67846Y37451D01*
X67840D01*
X67833Y37452D01*
X67824Y37453D01*
X67815Y37455D01*
X67806Y37457D01*
X67795Y37461D01*
X67784Y37465D01*
X67773Y37470D01*
X67762Y37476D01*
X67751Y37483D01*
X67741Y37491D01*
X67731Y37500D01*
X67722Y37511D01*
X67721Y37512D01*
X67720Y37513D01*
X67717Y37517D01*
X67714Y37522D01*
X67711Y37528D01*
X67707Y37535D01*
X67703Y37543D01*
X67699Y37553D01*
X67694Y37563D01*
X67690Y37574D01*
X67686Y37586D01*
X67683Y37599D01*
X67677Y37627D01*
X67676Y37643D01*
X67676Y37658D01*
Y37659D01*
Y37661D01*
Y37664D01*
Y37668D01*
X67676Y37674D01*
Y37680D01*
X67678Y37694D01*
X67680Y37711D01*
X67685Y37729D01*
X67689Y37748D01*
X67697Y37767D01*
Y37768D01*
X67698Y37769D01*
X67699Y37772D01*
X67701Y37775D01*
X67706Y37784D01*
X67713Y37796D01*
X67722Y37808D01*
X67732Y37820D01*
X67745Y37833D01*
X67759Y37844D01*
X67759D01*
X67760Y37845D01*
X67763Y37847D01*
X67766Y37848D01*
X67774Y37853D01*
X67786Y37858D01*
X67800Y37863D01*
X67816Y37868D01*
X67834Y37871D01*
X67854Y37872D01*
X67861D01*
X67866Y37871D01*
D02*
G37*
G36*
X66620Y37816D02*
X66621Y37817D01*
X66622Y37819D01*
X66625Y37821D01*
X66629Y37825D01*
X66633Y37829D01*
X66638Y37834D01*
X66644Y37839D01*
X66651Y37844D01*
X66667Y37855D01*
X66686Y37863D01*
X66697Y37867D01*
X66709Y37870D01*
X66721Y37871D01*
X66733Y37872D01*
X66740D01*
X66747Y37871D01*
X66756Y37871D01*
X66767Y37868D01*
X66779Y37866D01*
X66792Y37861D01*
X66805Y37857D01*
X66806Y37856D01*
X66811Y37854D01*
X66817Y37850D01*
X66825Y37845D01*
X66834Y37839D01*
X66843Y37832D01*
X66853Y37823D01*
X66861Y37813D01*
X66862Y37812D01*
X66864Y37808D01*
X66868Y37802D01*
X66873Y37795D01*
X66879Y37785D01*
X66885Y37773D01*
X66890Y37760D01*
X66895Y37746D01*
Y37745D01*
X66896Y37745D01*
X66897Y37742D01*
X66898Y37740D01*
X66899Y37731D01*
X66902Y37721D01*
X66904Y37708D01*
X66907Y37694D01*
X66908Y37679D01*
X66909Y37662D01*
Y37661D01*
Y37657D01*
Y37652D01*
X66908Y37645D01*
X66907Y37636D01*
X66906Y37626D01*
X66904Y37615D01*
X66902Y37602D01*
X66895Y37576D01*
X66891Y37562D01*
X66886Y37549D01*
X66881Y37535D01*
X66873Y37522D01*
X66865Y37510D01*
X66856Y37499D01*
X66855Y37498D01*
X66853Y37496D01*
X66851Y37494D01*
X66847Y37489D01*
X66841Y37485D01*
X66835Y37480D01*
X66829Y37476D01*
X66820Y37470D01*
X66811Y37465D01*
X66802Y37459D01*
X66780Y37450D01*
X66769Y37446D01*
X66756Y37443D01*
X66743Y37442D01*
X66730Y37441D01*
X66727D01*
X66723Y37442D01*
X66718D01*
X66712Y37443D01*
X66704Y37444D01*
X66688Y37448D01*
X66679Y37452D01*
X66670Y37456D01*
X66660Y37461D01*
X66651Y37466D01*
X66641Y37474D01*
X66632Y37482D01*
X66624Y37491D01*
X66616Y37502D01*
Y37450D01*
X66551D01*
Y38019D01*
X66620D01*
Y37816D01*
D02*
G37*
G36*
X64078Y37871D02*
X64085Y37871D01*
X64093Y37869D01*
X64102Y37867D01*
X64113Y37865D01*
X64123Y37862D01*
X64134Y37858D01*
X64145Y37854D01*
X64157Y37848D01*
X64168Y37842D01*
X64180Y37834D01*
X64190Y37825D01*
X64200Y37815D01*
X64201Y37815D01*
X64203Y37813D01*
X64205Y37810D01*
X64208Y37805D01*
X64212Y37799D01*
X64217Y37792D01*
X64222Y37784D01*
X64226Y37774D01*
X64231Y37764D01*
X64236Y37752D01*
X64240Y37739D01*
X64245Y37725D01*
X64248Y37709D01*
X64250Y37693D01*
X64252Y37675D01*
X64253Y37657D01*
Y37656D01*
Y37652D01*
Y37647D01*
X64252Y37638D01*
X63943D01*
Y37638D01*
Y37635D01*
X63944Y37632D01*
Y37627D01*
X63945Y37621D01*
X63947Y37615D01*
X63949Y37600D01*
X63954Y37583D01*
X63961Y37565D01*
X63970Y37549D01*
X63981Y37534D01*
X63982D01*
X63983Y37532D01*
X63988Y37528D01*
X63995Y37522D01*
X64005Y37517D01*
X64018Y37510D01*
X64033Y37504D01*
X64050Y37500D01*
X64059Y37499D01*
X64068Y37499D01*
X64075D01*
X64082Y37499D01*
X64092Y37501D01*
X64101Y37503D01*
X64113Y37507D01*
X64124Y37512D01*
X64134Y37518D01*
X64135Y37519D01*
X64139Y37522D01*
X64144Y37527D01*
X64150Y37534D01*
X64157Y37543D01*
X64164Y37555D01*
X64171Y37568D01*
X64178Y37583D01*
X64250Y37574D01*
Y37573D01*
X64250Y37572D01*
X64249Y37569D01*
X64247Y37564D01*
X64245Y37559D01*
X64242Y37552D01*
X64236Y37538D01*
X64227Y37522D01*
X64216Y37506D01*
X64203Y37490D01*
X64186Y37476D01*
X64185D01*
X64184Y37474D01*
X64181Y37472D01*
X64178Y37470D01*
X64173Y37467D01*
X64168Y37465D01*
X64161Y37462D01*
X64154Y37458D01*
X64146Y37455D01*
X64138Y37452D01*
X64117Y37447D01*
X64094Y37443D01*
X64068Y37441D01*
X64059D01*
X64054Y37442D01*
X64046Y37443D01*
X64037Y37444D01*
X64027Y37446D01*
X64017Y37448D01*
X63994Y37454D01*
X63981Y37459D01*
X63970Y37464D01*
X63957Y37471D01*
X63946Y37478D01*
X63935Y37486D01*
X63924Y37496D01*
X63924Y37497D01*
X63922Y37499D01*
X63920Y37502D01*
X63916Y37507D01*
X63912Y37513D01*
X63908Y37519D01*
X63903Y37527D01*
X63898Y37536D01*
X63893Y37547D01*
X63888Y37559D01*
X63884Y37572D01*
X63880Y37586D01*
X63877Y37601D01*
X63874Y37617D01*
X63873Y37634D01*
X63872Y37652D01*
Y37653D01*
Y37657D01*
Y37662D01*
X63873Y37670D01*
X63873Y37679D01*
X63874Y37689D01*
X63876Y37700D01*
X63878Y37712D01*
X63885Y37738D01*
X63889Y37751D01*
X63894Y37765D01*
X63901Y37778D01*
X63908Y37791D01*
X63916Y37803D01*
X63925Y37815D01*
X63926Y37815D01*
X63928Y37817D01*
X63931Y37820D01*
X63935Y37824D01*
X63940Y37828D01*
X63947Y37833D01*
X63954Y37838D01*
X63963Y37843D01*
X63972Y37849D01*
X63983Y37854D01*
X63994Y37859D01*
X64007Y37863D01*
X64020Y37867D01*
X64034Y37870D01*
X64049Y37871D01*
X64064Y37872D01*
X64073D01*
X64078Y37871D01*
D02*
G37*
G36*
X63236D02*
X63243Y37871D01*
X63251Y37869D01*
X63260Y37867D01*
X63271Y37866D01*
X63293Y37858D01*
X63305Y37854D01*
X63316Y37848D01*
X63328Y37843D01*
X63339Y37834D01*
X63350Y37826D01*
X63361Y37816D01*
X63362Y37815D01*
X63363Y37814D01*
X63366Y37810D01*
X63369Y37806D01*
X63373Y37801D01*
X63378Y37793D01*
X63383Y37785D01*
X63388Y37776D01*
X63393Y37766D01*
X63398Y37754D01*
X63403Y37741D01*
X63407Y37727D01*
X63410Y37713D01*
X63413Y37697D01*
X63414Y37680D01*
X63415Y37662D01*
Y37661D01*
Y37659D01*
Y37655D01*
Y37649D01*
X63414Y37643D01*
X63413Y37634D01*
Y37626D01*
X63412Y37617D01*
X63409Y37596D01*
X63404Y37576D01*
X63399Y37555D01*
X63390Y37536D01*
Y37536D01*
X63390Y37535D01*
X63388Y37532D01*
X63386Y37529D01*
X63380Y37521D01*
X63373Y37511D01*
X63363Y37499D01*
X63351Y37488D01*
X63337Y37476D01*
X63320Y37466D01*
X63320D01*
X63319Y37465D01*
X63316Y37463D01*
X63312Y37462D01*
X63308Y37460D01*
X63303Y37458D01*
X63291Y37453D01*
X63277Y37449D01*
X63259Y37445D01*
X63241Y37442D01*
X63222Y37441D01*
X63213D01*
X63207Y37442D01*
X63199Y37443D01*
X63191Y37444D01*
X63181Y37446D01*
X63171Y37448D01*
X63149Y37454D01*
X63137Y37459D01*
X63125Y37464D01*
X63114Y37471D01*
X63102Y37478D01*
X63092Y37486D01*
X63081Y37496D01*
X63080Y37497D01*
X63078Y37499D01*
X63076Y37502D01*
X63073Y37507D01*
X63069Y37513D01*
X63064Y37519D01*
X63060Y37527D01*
X63055Y37537D01*
X63050Y37548D01*
X63045Y37560D01*
X63041Y37573D01*
X63036Y37587D01*
X63033Y37603D01*
X63031Y37620D01*
X63029Y37638D01*
X63028Y37657D01*
Y37658D01*
Y37661D01*
X63029Y37667D01*
Y37675D01*
X63030Y37685D01*
X63032Y37696D01*
X63033Y37708D01*
X63036Y37721D01*
X63040Y37734D01*
X63044Y37748D01*
X63049Y37763D01*
X63055Y37777D01*
X63062Y37790D01*
X63071Y37803D01*
X63080Y37815D01*
X63092Y37826D01*
X63092Y37827D01*
X63094Y37828D01*
X63097Y37830D01*
X63101Y37833D01*
X63106Y37837D01*
X63113Y37841D01*
X63120Y37845D01*
X63128Y37849D01*
X63137Y37853D01*
X63147Y37857D01*
X63169Y37865D01*
X63194Y37871D01*
X63208Y37871D01*
X63222Y37872D01*
X63230D01*
X63236Y37871D01*
D02*
G37*
G36*
X63785Y36000D02*
X63715D01*
Y36445D01*
X63714Y36444D01*
X63710Y36441D01*
X63705Y36436D01*
X63696Y36430D01*
X63687Y36423D01*
X63676Y36415D01*
X63663Y36406D01*
X63648Y36397D01*
X63647D01*
X63646Y36396D01*
X63641Y36393D01*
X63633Y36388D01*
X63623Y36383D01*
X63612Y36378D01*
X63599Y36372D01*
X63587Y36366D01*
X63575Y36361D01*
Y36429D01*
X63576D01*
X63577Y36430D01*
X63580Y36431D01*
X63585Y36434D01*
X63590Y36436D01*
X63595Y36439D01*
X63609Y36448D01*
X63626Y36457D01*
X63642Y36468D01*
X63659Y36481D01*
X63677Y36495D01*
X63678Y36496D01*
X63678Y36497D01*
X63681Y36500D01*
X63684Y36502D01*
X63692Y36510D01*
X63701Y36520D01*
X63711Y36532D01*
X63722Y36545D01*
X63731Y36558D01*
X63739Y36572D01*
X63785D01*
Y36000D01*
D02*
G37*
G36*
X66025Y36571D02*
X66031Y36570D01*
X66039Y36569D01*
X66049Y36568D01*
X66058Y36566D01*
X66079Y36560D01*
X66100Y36552D01*
X66111Y36547D01*
X66122Y36542D01*
X66132Y36534D01*
X66141Y36526D01*
X66142Y36525D01*
X66143Y36524D01*
X66145Y36521D01*
X66148Y36518D01*
X66152Y36514D01*
X66156Y36508D01*
X66160Y36502D01*
X66165Y36495D01*
X66174Y36479D01*
X66182Y36459D01*
X66185Y36449D01*
X66187Y36438D01*
X66188Y36426D01*
X66189Y36414D01*
Y36412D01*
Y36408D01*
X66188Y36402D01*
X66188Y36393D01*
X66186Y36383D01*
X66183Y36371D01*
X66179Y36359D01*
X66174Y36346D01*
X66174Y36345D01*
X66172Y36341D01*
X66169Y36334D01*
X66164Y36325D01*
X66157Y36315D01*
X66149Y36303D01*
X66139Y36291D01*
X66128Y36277D01*
X66126Y36275D01*
X66122Y36270D01*
X66118Y36266D01*
X66114Y36262D01*
X66109Y36257D01*
X66102Y36250D01*
X66095Y36244D01*
X66087Y36236D01*
X66079Y36228D01*
X66069Y36219D01*
X66058Y36210D01*
X66047Y36199D01*
X66034Y36188D01*
X66021Y36177D01*
X66020Y36176D01*
X66018Y36174D01*
X66015Y36172D01*
X66011Y36169D01*
X66006Y36164D01*
X66000Y36159D01*
X65987Y36148D01*
X65973Y36136D01*
X65960Y36123D01*
X65948Y36113D01*
X65943Y36109D01*
X65939Y36105D01*
X65938Y36104D01*
X65936Y36101D01*
X65932Y36098D01*
X65928Y36093D01*
X65924Y36087D01*
X65919Y36081D01*
X65909Y36067D01*
X66190D01*
Y36000D01*
X65812D01*
Y36001D01*
Y36004D01*
Y36009D01*
X65813Y36016D01*
X65814Y36023D01*
X65816Y36031D01*
X65817Y36040D01*
X65821Y36049D01*
Y36049D01*
X65821Y36050D01*
X65823Y36055D01*
X65826Y36063D01*
X65831Y36072D01*
X65838Y36084D01*
X65846Y36097D01*
X65855Y36110D01*
X65867Y36124D01*
Y36125D01*
X65868Y36126D01*
X65872Y36131D01*
X65880Y36138D01*
X65891Y36149D01*
X65903Y36161D01*
X65918Y36176D01*
X65937Y36193D01*
X65958Y36210D01*
X65959Y36211D01*
X65962Y36213D01*
X65967Y36217D01*
X65973Y36222D01*
X65980Y36229D01*
X65989Y36236D01*
X65998Y36244D01*
X66009Y36253D01*
X66030Y36273D01*
X66050Y36293D01*
X66060Y36303D01*
X66069Y36313D01*
X66077Y36322D01*
X66084Y36331D01*
Y36332D01*
X66086Y36332D01*
X66087Y36335D01*
X66089Y36338D01*
X66095Y36347D01*
X66101Y36358D01*
X66107Y36371D01*
X66113Y36385D01*
X66116Y36401D01*
X66118Y36416D01*
Y36416D01*
Y36417D01*
X66117Y36422D01*
X66116Y36430D01*
X66114Y36439D01*
X66110Y36451D01*
X66104Y36463D01*
X66097Y36474D01*
X66087Y36486D01*
X66086Y36487D01*
X66081Y36490D01*
X66076Y36495D01*
X66067Y36500D01*
X66055Y36505D01*
X66042Y36510D01*
X66026Y36514D01*
X66009Y36514D01*
X66004D01*
X66001Y36514D01*
X65991Y36513D01*
X65979Y36510D01*
X65967Y36507D01*
X65953Y36501D01*
X65940Y36494D01*
X65928Y36484D01*
X65926Y36482D01*
X65923Y36478D01*
X65918Y36472D01*
X65913Y36462D01*
X65907Y36450D01*
X65902Y36435D01*
X65899Y36419D01*
X65897Y36400D01*
X65825Y36407D01*
Y36408D01*
X65826Y36411D01*
Y36415D01*
X65827Y36421D01*
X65829Y36427D01*
X65830Y36435D01*
X65833Y36444D01*
X65835Y36453D01*
X65842Y36472D01*
X65852Y36492D01*
X65858Y36502D01*
X65865Y36512D01*
X65872Y36521D01*
X65881Y36529D01*
X65881Y36530D01*
X65883Y36531D01*
X65886Y36533D01*
X65890Y36536D01*
X65895Y36539D01*
X65900Y36542D01*
X65907Y36546D01*
X65915Y36551D01*
X65924Y36555D01*
X65934Y36559D01*
X65945Y36562D01*
X65956Y36565D01*
X65969Y36568D01*
X65982Y36570D01*
X65996Y36571D01*
X66011Y36572D01*
X66019D01*
X66025Y36571D01*
D02*
G37*
G36*
X65408Y36201D02*
X65486D01*
Y36137D01*
X65408D01*
Y36000D01*
X65338D01*
Y36137D01*
X65091D01*
Y36201D01*
X65351Y36569D01*
X65408D01*
Y36201D01*
D02*
G37*
G36*
X62838Y36571D02*
X62845Y36570D01*
X62853Y36569D01*
X62862Y36568D01*
X62871Y36566D01*
X62892Y36560D01*
X62914Y36552D01*
X62925Y36547D01*
X62935Y36542D01*
X62945Y36534D01*
X62954Y36526D01*
X62955Y36525D01*
X62957Y36524D01*
X62958Y36521D01*
X62962Y36518D01*
X62966Y36514D01*
X62970Y36508D01*
X62974Y36502D01*
X62979Y36495D01*
X62987Y36479D01*
X62995Y36459D01*
X62999Y36449D01*
X63000Y36438D01*
X63002Y36426D01*
X63003Y36414D01*
Y36412D01*
Y36408D01*
X63002Y36402D01*
X63001Y36393D01*
X62999Y36383D01*
X62996Y36371D01*
X62993Y36359D01*
X62988Y36346D01*
X62987Y36345D01*
X62985Y36341D01*
X62982Y36334D01*
X62977Y36325D01*
X62971Y36315D01*
X62962Y36303D01*
X62953Y36291D01*
X62941Y36277D01*
X62939Y36275D01*
X62935Y36270D01*
X62931Y36266D01*
X62927Y36262D01*
X62922Y36257D01*
X62916Y36250D01*
X62909Y36244D01*
X62901Y36236D01*
X62892Y36228D01*
X62883Y36219D01*
X62872Y36210D01*
X62860Y36199D01*
X62847Y36188D01*
X62834Y36177D01*
X62833Y36176D01*
X62832Y36174D01*
X62828Y36172D01*
X62824Y36169D01*
X62819Y36164D01*
X62813Y36159D01*
X62800Y36148D01*
X62786Y36136D01*
X62773Y36123D01*
X62762Y36113D01*
X62757Y36109D01*
X62753Y36105D01*
X62752Y36104D01*
X62749Y36101D01*
X62746Y36098D01*
X62742Y36093D01*
X62738Y36087D01*
X62733Y36081D01*
X62723Y36067D01*
X63004D01*
Y36000D01*
X62626D01*
Y36001D01*
Y36004D01*
Y36009D01*
X62627Y36016D01*
X62627Y36023D01*
X62629Y36031D01*
X62631Y36040D01*
X62634Y36049D01*
Y36049D01*
X62635Y36050D01*
X62637Y36055D01*
X62640Y36063D01*
X62645Y36072D01*
X62651Y36084D01*
X62660Y36097D01*
X62669Y36110D01*
X62680Y36124D01*
Y36125D01*
X62682Y36126D01*
X62686Y36131D01*
X62693Y36138D01*
X62704Y36149D01*
X62716Y36161D01*
X62732Y36176D01*
X62751Y36193D01*
X62771Y36210D01*
X62772Y36211D01*
X62776Y36213D01*
X62781Y36217D01*
X62786Y36222D01*
X62794Y36229D01*
X62803Y36236D01*
X62812Y36244D01*
X62823Y36253D01*
X62843Y36273D01*
X62864Y36293D01*
X62874Y36303D01*
X62883Y36313D01*
X62891Y36322D01*
X62897Y36331D01*
Y36332D01*
X62899Y36332D01*
X62901Y36335D01*
X62902Y36338D01*
X62908Y36347D01*
X62915Y36358D01*
X62920Y36371D01*
X62926Y36385D01*
X62930Y36401D01*
X62931Y36416D01*
Y36416D01*
Y36417D01*
X62930Y36422D01*
X62930Y36430D01*
X62927Y36439D01*
X62924Y36451D01*
X62918Y36463D01*
X62911Y36474D01*
X62901Y36486D01*
X62899Y36487D01*
X62895Y36490D01*
X62889Y36495D01*
X62880Y36500D01*
X62869Y36505D01*
X62855Y36510D01*
X62840Y36514D01*
X62823Y36514D01*
X62818D01*
X62814Y36514D01*
X62804Y36513D01*
X62793Y36510D01*
X62781Y36507D01*
X62767Y36501D01*
X62753Y36494D01*
X62741Y36484D01*
X62739Y36482D01*
X62736Y36478D01*
X62731Y36472D01*
X62726Y36462D01*
X62720Y36450D01*
X62716Y36435D01*
X62712Y36419D01*
X62711Y36400D01*
X62639Y36407D01*
Y36408D01*
X62640Y36411D01*
Y36415D01*
X62641Y36421D01*
X62642Y36427D01*
X62644Y36435D01*
X62646Y36444D01*
X62649Y36453D01*
X62655Y36472D01*
X62665Y36492D01*
X62671Y36502D01*
X62678Y36512D01*
X62686Y36521D01*
X62694Y36529D01*
X62695Y36530D01*
X62697Y36531D01*
X62699Y36533D01*
X62703Y36536D01*
X62708Y36539D01*
X62714Y36542D01*
X62720Y36546D01*
X62729Y36551D01*
X62738Y36555D01*
X62748Y36559D01*
X62758Y36562D01*
X62770Y36565D01*
X62782Y36568D01*
X62795Y36570D01*
X62809Y36571D01*
X62824Y36572D01*
X62832D01*
X62838Y36571D01*
D02*
G37*
G36*
X64615Y36171D02*
X64398D01*
Y36241D01*
X64615D01*
Y36171D01*
D02*
G37*
G36*
X64161Y36571D02*
X64168Y36570D01*
X64175Y36569D01*
X64184Y36569D01*
X64192Y36566D01*
X64212Y36561D01*
X64231Y36554D01*
X64241Y36549D01*
X64251Y36543D01*
X64260Y36536D01*
X64269Y36528D01*
X64270Y36528D01*
X64271Y36527D01*
X64273Y36524D01*
X64277Y36521D01*
X64280Y36516D01*
X64284Y36511D01*
X64292Y36499D01*
X64301Y36483D01*
X64308Y36465D01*
X64314Y36444D01*
X64315Y36434D01*
X64315Y36422D01*
Y36421D01*
Y36421D01*
Y36416D01*
X64315Y36408D01*
X64313Y36399D01*
X64310Y36388D01*
X64306Y36376D01*
X64301Y36365D01*
X64294Y36353D01*
X64293Y36351D01*
X64290Y36348D01*
X64285Y36343D01*
X64278Y36337D01*
X64269Y36329D01*
X64259Y36322D01*
X64246Y36314D01*
X64231Y36308D01*
X64232D01*
X64234Y36307D01*
X64236Y36306D01*
X64240Y36304D01*
X64250Y36300D01*
X64261Y36295D01*
X64273Y36286D01*
X64287Y36277D01*
X64299Y36266D01*
X64310Y36253D01*
Y36252D01*
X64311Y36251D01*
X64315Y36246D01*
X64319Y36238D01*
X64324Y36227D01*
X64329Y36214D01*
X64334Y36198D01*
X64338Y36181D01*
X64338Y36162D01*
Y36161D01*
Y36159D01*
Y36155D01*
X64338Y36150D01*
X64337Y36144D01*
X64336Y36137D01*
X64334Y36128D01*
X64332Y36119D01*
X64326Y36100D01*
X64322Y36090D01*
X64316Y36080D01*
X64310Y36069D01*
X64304Y36059D01*
X64296Y36049D01*
X64287Y36040D01*
X64286Y36039D01*
X64284Y36037D01*
X64282Y36035D01*
X64277Y36032D01*
X64272Y36028D01*
X64266Y36024D01*
X64259Y36020D01*
X64250Y36015D01*
X64241Y36010D01*
X64231Y36006D01*
X64219Y36002D01*
X64208Y35998D01*
X64194Y35995D01*
X64180Y35993D01*
X64166Y35991D01*
X64151Y35990D01*
X64143D01*
X64137Y35991D01*
X64129Y35992D01*
X64121Y35993D01*
X64112Y35994D01*
X64102Y35997D01*
X64080Y36002D01*
X64068Y36007D01*
X64058Y36011D01*
X64046Y36016D01*
X64035Y36023D01*
X64024Y36030D01*
X64014Y36040D01*
X64013Y36040D01*
X64012Y36042D01*
X64009Y36044D01*
X64006Y36049D01*
X64003Y36053D01*
X63998Y36059D01*
X63994Y36066D01*
X63989Y36074D01*
X63984Y36082D01*
X63980Y36092D01*
X63971Y36113D01*
X63968Y36125D01*
X63966Y36137D01*
X63964Y36151D01*
X63963Y36164D01*
Y36165D01*
Y36166D01*
Y36170D01*
X63964Y36173D01*
Y36178D01*
X63965Y36184D01*
X63966Y36197D01*
X63970Y36211D01*
X63975Y36226D01*
X63982Y36242D01*
X63991Y36257D01*
Y36258D01*
X63993Y36258D01*
X63996Y36263D01*
X64003Y36269D01*
X64012Y36277D01*
X64023Y36286D01*
X64037Y36295D01*
X64053Y36302D01*
X64072Y36308D01*
X64071D01*
X64070Y36309D01*
X64068Y36309D01*
X64064Y36311D01*
X64057Y36314D01*
X64047Y36319D01*
X64036Y36326D01*
X64026Y36334D01*
X64016Y36343D01*
X64007Y36353D01*
X64006Y36355D01*
X64003Y36358D01*
X64000Y36365D01*
X63997Y36373D01*
X63993Y36383D01*
X63989Y36396D01*
X63987Y36410D01*
X63986Y36425D01*
Y36425D01*
Y36427D01*
Y36430D01*
X63987Y36435D01*
X63988Y36440D01*
X63989Y36447D01*
X63992Y36461D01*
X63997Y36477D01*
X64005Y36495D01*
X64010Y36504D01*
X64016Y36513D01*
X64023Y36521D01*
X64031Y36529D01*
X64031Y36530D01*
X64033Y36531D01*
X64036Y36533D01*
X64039Y36536D01*
X64043Y36539D01*
X64049Y36542D01*
X64055Y36546D01*
X64062Y36551D01*
X64070Y36555D01*
X64079Y36559D01*
X64089Y36562D01*
X64100Y36565D01*
X64123Y36570D01*
X64136Y36571D01*
X64149Y36572D01*
X64157D01*
X64161Y36571D01*
D02*
G37*
G36*
X64874D02*
X64885Y36569D01*
X64897Y36567D01*
X64910Y36564D01*
X64924Y36560D01*
X64938Y36553D01*
X64938D01*
X64939Y36552D01*
X64943Y36550D01*
X64950Y36546D01*
X64958Y36540D01*
X64967Y36532D01*
X64977Y36523D01*
X64986Y36512D01*
X64995Y36500D01*
X64996Y36498D01*
X64999Y36494D01*
X65003Y36486D01*
X65008Y36476D01*
X65013Y36463D01*
X65020Y36449D01*
X65026Y36433D01*
X65031Y36415D01*
Y36414D01*
X65031Y36412D01*
X65032Y36410D01*
X65033Y36406D01*
X65034Y36401D01*
X65035Y36395D01*
X65036Y36388D01*
X65037Y36379D01*
X65039Y36370D01*
X65040Y36360D01*
X65040Y36349D01*
X65042Y36337D01*
X65043Y36324D01*
Y36311D01*
X65044Y36296D01*
Y36281D01*
Y36280D01*
Y36277D01*
Y36271D01*
Y36264D01*
X65043Y36255D01*
Y36245D01*
X65042Y36235D01*
X65041Y36223D01*
X65039Y36197D01*
X65035Y36170D01*
X65030Y36143D01*
X65026Y36131D01*
X65022Y36119D01*
Y36118D01*
X65021Y36116D01*
X65020Y36113D01*
X65018Y36109D01*
X65017Y36103D01*
X65013Y36097D01*
X65007Y36083D01*
X64998Y36068D01*
X64988Y36052D01*
X64975Y36037D01*
X64961Y36023D01*
X64960D01*
X64959Y36021D01*
X64956Y36020D01*
X64953Y36018D01*
X64949Y36016D01*
X64945Y36012D01*
X64933Y36007D01*
X64918Y36001D01*
X64900Y35995D01*
X64880Y35992D01*
X64858Y35990D01*
X64849D01*
X64844Y35991D01*
X64837Y35992D01*
X64829Y35993D01*
X64820Y35995D01*
X64810Y35998D01*
X64800Y36001D01*
X64789Y36004D01*
X64779Y36009D01*
X64768Y36015D01*
X64757Y36021D01*
X64747Y36030D01*
X64737Y36039D01*
X64728Y36049D01*
X64727Y36049D01*
X64725Y36052D01*
X64723Y36056D01*
X64719Y36063D01*
X64715Y36070D01*
X64710Y36080D01*
X64705Y36091D01*
X64700Y36105D01*
X64695Y36119D01*
X64690Y36137D01*
X64685Y36156D01*
X64681Y36177D01*
X64677Y36200D01*
X64674Y36225D01*
X64673Y36252D01*
X64672Y36281D01*
Y36281D01*
Y36285D01*
Y36291D01*
Y36297D01*
X64673Y36306D01*
Y36316D01*
X64673Y36327D01*
X64674Y36339D01*
X64677Y36365D01*
X64681Y36392D01*
X64686Y36419D01*
X64689Y36431D01*
X64692Y36444D01*
Y36444D01*
X64693Y36446D01*
X64695Y36449D01*
X64696Y36453D01*
X64698Y36459D01*
X64701Y36465D01*
X64708Y36479D01*
X64716Y36494D01*
X64727Y36509D01*
X64739Y36525D01*
X64754Y36538D01*
X64755D01*
X64756Y36540D01*
X64758Y36542D01*
X64761Y36543D01*
X64766Y36546D01*
X64770Y36549D01*
X64783Y36556D01*
X64798Y36561D01*
X64815Y36567D01*
X64835Y36570D01*
X64858Y36572D01*
X64865D01*
X64874Y36571D01*
D02*
G37*
G36*
X67178Y37871D02*
X67184Y37871D01*
X67192Y37869D01*
X67201Y37867D01*
X67212Y37865D01*
X67222Y37862D01*
X67234Y37858D01*
X67244Y37854D01*
X67256Y37848D01*
X67267Y37842D01*
X67279Y37834D01*
X67290Y37825D01*
X67299Y37815D01*
X67300Y37815D01*
X67302Y37813D01*
X67304Y37810D01*
X67308Y37805D01*
X67312Y37799D01*
X67316Y37792D01*
X67321Y37784D01*
X67326Y37774D01*
X67331Y37764D01*
X67336Y37752D01*
X67340Y37739D01*
X67344Y37725D01*
X67347Y37709D01*
X67350Y37693D01*
X67351Y37675D01*
X67352Y37657D01*
Y37656D01*
Y37652D01*
Y37647D01*
X67351Y37638D01*
X67043D01*
Y37638D01*
Y37635D01*
X67043Y37632D01*
Y37627D01*
X67044Y37621D01*
X67046Y37615D01*
X67048Y37600D01*
X67053Y37583D01*
X67060Y37565D01*
X67069Y37549D01*
X67081Y37534D01*
X67081D01*
X67082Y37532D01*
X67087Y37528D01*
X67094Y37522D01*
X67104Y37517D01*
X67118Y37510D01*
X67132Y37504D01*
X67149Y37500D01*
X67158Y37499D01*
X67168Y37499D01*
X67174D01*
X67182Y37499D01*
X67191Y37501D01*
X67201Y37503D01*
X67212Y37507D01*
X67223Y37512D01*
X67234Y37518D01*
X67234Y37519D01*
X67239Y37522D01*
X67243Y37527D01*
X67249Y37534D01*
X67256Y37543D01*
X67263Y37555D01*
X67271Y37568D01*
X67277Y37583D01*
X67350Y37574D01*
Y37573D01*
X67349Y37572D01*
X67348Y37569D01*
X67346Y37564D01*
X67344Y37559D01*
X67341Y37552D01*
X67335Y37538D01*
X67327Y37522D01*
X67315Y37506D01*
X67302Y37490D01*
X67285Y37476D01*
X67285D01*
X67283Y37474D01*
X67280Y37472D01*
X67277Y37470D01*
X67272Y37467D01*
X67267Y37465D01*
X67261Y37462D01*
X67253Y37458D01*
X67245Y37455D01*
X67237Y37452D01*
X67216Y37447D01*
X67193Y37443D01*
X67168Y37441D01*
X67159D01*
X67153Y37442D01*
X67146Y37443D01*
X67136Y37444D01*
X67127Y37446D01*
X67116Y37448D01*
X67093Y37454D01*
X67081Y37459D01*
X67069Y37464D01*
X67057Y37471D01*
X67045Y37478D01*
X67034Y37486D01*
X67024Y37496D01*
X67023Y37497D01*
X67021Y37499D01*
X67019Y37502D01*
X67015Y37507D01*
X67011Y37513D01*
X67007Y37519D01*
X67002Y37527D01*
X66997Y37536D01*
X66992Y37547D01*
X66988Y37559D01*
X66983Y37572D01*
X66979Y37586D01*
X66976Y37601D01*
X66974Y37617D01*
X66972Y37634D01*
X66971Y37652D01*
Y37653D01*
Y37657D01*
Y37662D01*
X66972Y37670D01*
X66973Y37679D01*
X66974Y37689D01*
X66975Y37700D01*
X66978Y37712D01*
X66984Y37738D01*
X66988Y37751D01*
X66993Y37765D01*
X67000Y37778D01*
X67007Y37791D01*
X67015Y37803D01*
X67025Y37815D01*
X67025Y37815D01*
X67027Y37817D01*
X67030Y37820D01*
X67034Y37824D01*
X67039Y37828D01*
X67046Y37833D01*
X67053Y37838D01*
X67062Y37843D01*
X67071Y37849D01*
X67082Y37854D01*
X67094Y37859D01*
X67106Y37863D01*
X67119Y37867D01*
X67133Y37870D01*
X67148Y37871D01*
X67164Y37872D01*
X67172D01*
X67178Y37871D01*
D02*
G37*
G36*
X63650D02*
X63662Y37871D01*
X63675Y37869D01*
X63689Y37866D01*
X63704Y37862D01*
X63718Y37857D01*
X63719D01*
X63720Y37857D01*
X63724Y37855D01*
X63730Y37852D01*
X63738Y37847D01*
X63748Y37842D01*
X63757Y37835D01*
X63765Y37828D01*
X63772Y37820D01*
X63773Y37819D01*
X63775Y37815D01*
X63778Y37810D01*
X63782Y37803D01*
X63786Y37793D01*
X63790Y37782D01*
X63794Y37770D01*
X63797Y37756D01*
X63729Y37747D01*
Y37749D01*
X63728Y37752D01*
X63726Y37758D01*
X63724Y37765D01*
X63720Y37773D01*
X63715Y37781D01*
X63709Y37789D01*
X63701Y37796D01*
X63700Y37797D01*
X63696Y37799D01*
X63692Y37802D01*
X63684Y37806D01*
X63676Y37809D01*
X63665Y37812D01*
X63652Y37814D01*
X63638Y37815D01*
X63630D01*
X63622Y37814D01*
X63611Y37813D01*
X63600Y37810D01*
X63589Y37808D01*
X63578Y37804D01*
X63569Y37798D01*
X63568Y37797D01*
X63566Y37796D01*
X63562Y37792D01*
X63559Y37787D01*
X63555Y37782D01*
X63552Y37776D01*
X63549Y37768D01*
X63548Y37761D01*
Y37760D01*
Y37759D01*
X63549Y37756D01*
Y37753D01*
X63552Y37745D01*
X63557Y37736D01*
X63557Y37736D01*
X63558Y37735D01*
X63560Y37732D01*
X63563Y37730D01*
X63566Y37727D01*
X63571Y37724D01*
X63577Y37722D01*
X63584Y37718D01*
X63585D01*
X63586Y37717D01*
X63590Y37717D01*
X63595Y37714D01*
X63604Y37712D01*
X63614Y37709D01*
X63621Y37707D01*
X63628Y37705D01*
X63636Y37703D01*
X63645Y37700D01*
X63646D01*
X63649Y37699D01*
X63653Y37699D01*
X63658Y37697D01*
X63664Y37695D01*
X63671Y37694D01*
X63687Y37689D01*
X63704Y37684D01*
X63721Y37678D01*
X63737Y37672D01*
X63743Y37670D01*
X63749Y37667D01*
X63751Y37666D01*
X63754Y37665D01*
X63759Y37662D01*
X63766Y37658D01*
X63774Y37653D01*
X63781Y37647D01*
X63789Y37639D01*
X63795Y37631D01*
X63796Y37630D01*
X63798Y37627D01*
X63801Y37622D01*
X63804Y37615D01*
X63807Y37606D01*
X63810Y37596D01*
X63812Y37584D01*
X63813Y37571D01*
Y37569D01*
Y37565D01*
X63812Y37559D01*
X63810Y37550D01*
X63808Y37540D01*
X63803Y37529D01*
X63799Y37517D01*
X63792Y37505D01*
X63791Y37503D01*
X63788Y37500D01*
X63784Y37494D01*
X63777Y37488D01*
X63768Y37480D01*
X63758Y37472D01*
X63747Y37465D01*
X63733Y37457D01*
X63732D01*
X63731Y37457D01*
X63726Y37455D01*
X63718Y37452D01*
X63707Y37449D01*
X63694Y37446D01*
X63679Y37443D01*
X63664Y37442D01*
X63645Y37441D01*
X63638D01*
X63632Y37442D01*
X63626D01*
X63617Y37443D01*
X63609Y37443D01*
X63600Y37445D01*
X63580Y37449D01*
X63560Y37455D01*
X63540Y37463D01*
X63531Y37468D01*
X63523Y37474D01*
X63522Y37475D01*
X63521Y37476D01*
X63516Y37480D01*
X63509Y37488D01*
X63501Y37499D01*
X63492Y37513D01*
X63483Y37530D01*
X63475Y37550D01*
X63469Y37573D01*
X63538Y37584D01*
Y37583D01*
Y37583D01*
X63540Y37578D01*
X63542Y37569D01*
X63545Y37560D01*
X63549Y37550D01*
X63554Y37540D01*
X63562Y37529D01*
X63571Y37520D01*
X63572Y37519D01*
X63576Y37517D01*
X63582Y37513D01*
X63590Y37509D01*
X63601Y37505D01*
X63613Y37502D01*
X63628Y37499D01*
X63645Y37499D01*
X63654D01*
X63662Y37499D01*
X63673Y37501D01*
X63684Y37503D01*
X63696Y37507D01*
X63707Y37511D01*
X63717Y37517D01*
X63718Y37518D01*
X63721Y37521D01*
X63724Y37525D01*
X63729Y37531D01*
X63734Y37537D01*
X63738Y37545D01*
X63740Y37554D01*
X63741Y37564D01*
Y37564D01*
Y37568D01*
X63740Y37572D01*
X63738Y37578D01*
X63736Y37583D01*
X63732Y37589D01*
X63727Y37596D01*
X63720Y37601D01*
X63719Y37601D01*
X63716Y37602D01*
X63712Y37605D01*
X63706Y37607D01*
X63696Y37610D01*
X63690Y37613D01*
X63683Y37615D01*
X63676Y37617D01*
X63668Y37620D01*
X63659Y37622D01*
X63648Y37624D01*
X63647D01*
X63645Y37625D01*
X63641Y37626D01*
X63636Y37628D01*
X63629Y37629D01*
X63622Y37632D01*
X63606Y37636D01*
X63588Y37642D01*
X63571Y37647D01*
X63554Y37652D01*
X63547Y37656D01*
X63541Y37658D01*
X63539Y37659D01*
X63536Y37661D01*
X63531Y37664D01*
X63525Y37668D01*
X63517Y37674D01*
X63510Y37680D01*
X63502Y37688D01*
X63496Y37697D01*
X63495Y37698D01*
X63493Y37701D01*
X63491Y37707D01*
X63488Y37713D01*
X63486Y37722D01*
X63483Y37731D01*
X63482Y37741D01*
X63481Y37753D01*
Y37755D01*
Y37758D01*
X63482Y37763D01*
X63483Y37770D01*
X63484Y37778D01*
X63486Y37787D01*
X63489Y37795D01*
X63493Y37804D01*
X63494Y37805D01*
X63496Y37808D01*
X63498Y37812D01*
X63502Y37818D01*
X63507Y37824D01*
X63513Y37831D01*
X63520Y37838D01*
X63528Y37843D01*
X63529Y37844D01*
X63531Y37845D01*
X63534Y37847D01*
X63539Y37850D01*
X63546Y37853D01*
X63553Y37857D01*
X63562Y37860D01*
X63572Y37863D01*
X63574Y37864D01*
X63577Y37865D01*
X63583Y37866D01*
X63590Y37868D01*
X63599Y37870D01*
X63609Y37871D01*
X63621Y37872D01*
X63641D01*
X63650Y37871D01*
D02*
G37*
G36*
X67797Y36421D02*
X67804Y36421D01*
X67812Y36419D01*
X67821Y36417D01*
X67832Y36415D01*
X67842Y36412D01*
X67853Y36408D01*
X67864Y36404D01*
X67875Y36398D01*
X67887Y36392D01*
X67898Y36384D01*
X67909Y36375D01*
X67919Y36365D01*
X67920Y36365D01*
X67922Y36363D01*
X67924Y36360D01*
X67927Y36355D01*
X67931Y36349D01*
X67936Y36342D01*
X67940Y36334D01*
X67945Y36324D01*
X67950Y36314D01*
X67955Y36302D01*
X67959Y36289D01*
X67963Y36275D01*
X67967Y36259D01*
X67969Y36243D01*
X67971Y36225D01*
X67972Y36207D01*
Y36206D01*
Y36202D01*
Y36197D01*
X67971Y36188D01*
X67662D01*
Y36188D01*
Y36185D01*
X67663Y36182D01*
Y36177D01*
X67664Y36171D01*
X67666Y36165D01*
X67668Y36150D01*
X67673Y36133D01*
X67680Y36115D01*
X67689Y36099D01*
X67700Y36084D01*
X67701D01*
X67702Y36082D01*
X67707Y36078D01*
X67714Y36072D01*
X67724Y36067D01*
X67737Y36060D01*
X67752Y36054D01*
X67768Y36050D01*
X67777Y36049D01*
X67787Y36049D01*
X67794D01*
X67801Y36049D01*
X67810Y36051D01*
X67820Y36053D01*
X67832Y36057D01*
X67843Y36062D01*
X67853Y36068D01*
X67854Y36069D01*
X67858Y36072D01*
X67863Y36077D01*
X67869Y36084D01*
X67875Y36093D01*
X67883Y36105D01*
X67890Y36118D01*
X67897Y36133D01*
X67969Y36124D01*
Y36123D01*
X67968Y36122D01*
X67968Y36119D01*
X67966Y36114D01*
X67963Y36109D01*
X67961Y36102D01*
X67954Y36088D01*
X67946Y36072D01*
X67935Y36056D01*
X67922Y36040D01*
X67905Y36026D01*
X67904D01*
X67903Y36024D01*
X67900Y36022D01*
X67897Y36020D01*
X67892Y36017D01*
X67887Y36015D01*
X67880Y36012D01*
X67873Y36008D01*
X67865Y36005D01*
X67856Y36002D01*
X67836Y35997D01*
X67813Y35993D01*
X67787Y35991D01*
X67778D01*
X67773Y35992D01*
X67765Y35993D01*
X67756Y35994D01*
X67746Y35996D01*
X67736Y35998D01*
X67712Y36004D01*
X67700Y36009D01*
X67689Y36014D01*
X67676Y36021D01*
X67665Y36028D01*
X67654Y36036D01*
X67643Y36046D01*
X67643Y36047D01*
X67641Y36049D01*
X67638Y36052D01*
X67635Y36057D01*
X67631Y36063D01*
X67627Y36069D01*
X67622Y36077D01*
X67617Y36086D01*
X67612Y36097D01*
X67607Y36109D01*
X67603Y36122D01*
X67599Y36136D01*
X67596Y36151D01*
X67593Y36167D01*
X67592Y36184D01*
X67591Y36202D01*
Y36203D01*
Y36207D01*
Y36212D01*
X67592Y36220D01*
X67592Y36229D01*
X67593Y36239D01*
X67595Y36250D01*
X67597Y36262D01*
X67604Y36288D01*
X67608Y36301D01*
X67613Y36315D01*
X67619Y36328D01*
X67627Y36341D01*
X67635Y36353D01*
X67644Y36365D01*
X67645Y36365D01*
X67647Y36367D01*
X67650Y36370D01*
X67654Y36374D01*
X67659Y36378D01*
X67666Y36383D01*
X67673Y36388D01*
X67682Y36393D01*
X67691Y36399D01*
X67702Y36404D01*
X67713Y36409D01*
X67726Y36413D01*
X67739Y36417D01*
X67753Y36420D01*
X67768Y36421D01*
X67783Y36422D01*
X67791D01*
X67797Y36421D01*
D02*
G37*
G36*
X67321Y36569D02*
X67328D01*
X67345Y36568D01*
X67364Y36565D01*
X67383Y36563D01*
X67401Y36559D01*
X67410Y36556D01*
X67418Y36554D01*
X67419D01*
X67420Y36553D01*
X67424Y36551D01*
X67432Y36547D01*
X67441Y36542D01*
X67451Y36534D01*
X67461Y36524D01*
X67471Y36513D01*
X67481Y36500D01*
Y36499D01*
X67482Y36498D01*
X67485Y36493D01*
X67489Y36485D01*
X67494Y36474D01*
X67498Y36462D01*
X67502Y36447D01*
X67504Y36431D01*
X67505Y36414D01*
Y36413D01*
Y36411D01*
Y36408D01*
X67504Y36404D01*
Y36398D01*
X67503Y36393D01*
X67500Y36379D01*
X67495Y36362D01*
X67489Y36345D01*
X67479Y36328D01*
X67472Y36319D01*
X67466Y36311D01*
X67465Y36310D01*
X67464Y36309D01*
X67461Y36307D01*
X67458Y36304D01*
X67454Y36301D01*
X67449Y36298D01*
X67443Y36294D01*
X67436Y36289D01*
X67428Y36285D01*
X67419Y36281D01*
X67409Y36276D01*
X67398Y36272D01*
X67386Y36268D01*
X67373Y36264D01*
X67359Y36262D01*
X67345Y36259D01*
X67346Y36258D01*
X67350Y36257D01*
X67354Y36253D01*
X67361Y36250D01*
X67376Y36241D01*
X67383Y36235D01*
X67390Y36230D01*
X67392Y36229D01*
X67396Y36225D01*
X67402Y36218D01*
X67410Y36210D01*
X67420Y36198D01*
X67430Y36186D01*
X67441Y36171D01*
X67452Y36155D01*
X67550Y36000D01*
X67457D01*
X67382Y36119D01*
Y36119D01*
X67380Y36121D01*
X67378Y36123D01*
X67376Y36127D01*
X67370Y36136D01*
X67363Y36147D01*
X67354Y36160D01*
X67345Y36173D01*
X67336Y36185D01*
X67327Y36197D01*
X67327Y36198D01*
X67324Y36201D01*
X67320Y36206D01*
X67314Y36211D01*
X67302Y36224D01*
X67295Y36230D01*
X67289Y36235D01*
X67288Y36235D01*
X67286Y36236D01*
X67283Y36238D01*
X67278Y36240D01*
X67273Y36243D01*
X67267Y36245D01*
X67254Y36249D01*
X67253D01*
X67252Y36250D01*
X67248D01*
X67244Y36251D01*
X67238Y36252D01*
X67232D01*
X67223Y36253D01*
X67126D01*
Y36000D01*
X67050D01*
Y36569D01*
X67314D01*
X67321Y36569D01*
D02*
G37*
G36*
X67602Y37871D02*
X67611Y37870D01*
X67622Y37866D01*
X67634Y37862D01*
X67647Y37857D01*
X67661Y37849D01*
X67635Y37785D01*
X67634Y37786D01*
X67631Y37787D01*
X67626Y37790D01*
X67620Y37792D01*
X67612Y37795D01*
X67603Y37797D01*
X67594Y37799D01*
X67585Y37800D01*
X67581D01*
X67577Y37799D01*
X67571Y37798D01*
X67565Y37796D01*
X67558Y37794D01*
X67550Y37791D01*
X67544Y37786D01*
X67543Y37785D01*
X67541Y37783D01*
X67538Y37780D01*
X67534Y37776D01*
X67530Y37770D01*
X67526Y37764D01*
X67522Y37756D01*
X67518Y37747D01*
X67518Y37745D01*
X67517Y37741D01*
X67515Y37733D01*
X67513Y37723D01*
X67510Y37711D01*
X67508Y37697D01*
X67508Y37682D01*
X67507Y37666D01*
Y37450D01*
X67437D01*
Y37863D01*
X67500D01*
Y37801D01*
X67501Y37801D01*
X67504Y37807D01*
X67508Y37815D01*
X67515Y37824D01*
X67522Y37833D01*
X67529Y37843D01*
X67536Y37851D01*
X67544Y37857D01*
X67545Y37858D01*
X67547Y37860D01*
X67552Y37862D01*
X67557Y37865D01*
X67564Y37867D01*
X67572Y37870D01*
X67580Y37871D01*
X67589Y37872D01*
X67595D01*
X67602Y37871D01*
D02*
G37*
G36*
X64488Y38029D02*
X64498Y38028D01*
X64510Y38026D01*
X64521Y38024D01*
X64534Y38022D01*
X64524Y37961D01*
X64523D01*
X64520Y37962D01*
X64516Y37963D01*
X64510Y37964D01*
X64504D01*
X64497Y37964D01*
X64482Y37965D01*
X64477D01*
X64472Y37964D01*
X64465Y37964D01*
X64458Y37962D01*
X64450Y37959D01*
X64444Y37956D01*
X64438Y37951D01*
X64437Y37950D01*
X64436Y37949D01*
X64434Y37945D01*
X64431Y37940D01*
X64429Y37933D01*
X64427Y37925D01*
X64426Y37914D01*
X64425Y37901D01*
Y37863D01*
X64505D01*
Y37809D01*
X64425D01*
Y37450D01*
X64355D01*
Y37809D01*
X64293D01*
Y37863D01*
X64355D01*
Y37907D01*
Y37908D01*
Y37908D01*
Y37913D01*
X64356Y37921D01*
Y37930D01*
X64357Y37940D01*
X64358Y37950D01*
X64360Y37960D01*
X64362Y37968D01*
X64363Y37969D01*
X64364Y37973D01*
X64366Y37978D01*
X64370Y37984D01*
X64375Y37991D01*
X64381Y37998D01*
X64389Y38006D01*
X64398Y38012D01*
X64398Y38013D01*
X64403Y38015D01*
X64408Y38018D01*
X64417Y38021D01*
X64426Y38024D01*
X64439Y38027D01*
X64453Y38029D01*
X64469Y38029D01*
X64481D01*
X64488Y38029D01*
D02*
G37*
G36*
X66441Y37450D02*
X66376D01*
Y37502D01*
X66375Y37501D01*
X66374Y37499D01*
X66372Y37496D01*
X66369Y37492D01*
X66365Y37488D01*
X66360Y37483D01*
X66354Y37477D01*
X66346Y37471D01*
X66339Y37466D01*
X66331Y37460D01*
X66321Y37455D01*
X66310Y37451D01*
X66300Y37447D01*
X66287Y37443D01*
X66274Y37442D01*
X66260Y37441D01*
X66255D01*
X66252Y37442D01*
X66242Y37443D01*
X66230Y37444D01*
X66216Y37448D01*
X66201Y37452D01*
X66185Y37459D01*
X66169Y37468D01*
X66169D01*
X66168Y37470D01*
X66163Y37473D01*
X66156Y37480D01*
X66146Y37488D01*
X66136Y37499D01*
X66125Y37512D01*
X66114Y37527D01*
X66105Y37544D01*
Y37545D01*
X66104Y37546D01*
X66104Y37549D01*
X66102Y37552D01*
X66100Y37557D01*
X66098Y37563D01*
X66096Y37569D01*
X66095Y37576D01*
X66090Y37592D01*
X66086Y37611D01*
X66084Y37633D01*
X66083Y37656D01*
Y37657D01*
Y37658D01*
Y37661D01*
Y37666D01*
X66084Y37671D01*
Y37678D01*
X66086Y37693D01*
X66088Y37710D01*
X66092Y37729D01*
X66097Y37749D01*
X66104Y37768D01*
Y37768D01*
X66104Y37770D01*
X66106Y37773D01*
X66108Y37776D01*
X66113Y37785D01*
X66119Y37796D01*
X66128Y37809D01*
X66138Y37821D01*
X66151Y37834D01*
X66165Y37845D01*
X66166D01*
X66167Y37846D01*
X66169Y37847D01*
X66173Y37849D01*
X66181Y37853D01*
X66193Y37859D01*
X66206Y37864D01*
X66221Y37868D01*
X66239Y37871D01*
X66257Y37872D01*
X66263D01*
X66270Y37871D01*
X66279Y37871D01*
X66290Y37868D01*
X66301Y37866D01*
X66313Y37861D01*
X66323Y37856D01*
X66325Y37855D01*
X66328Y37853D01*
X66333Y37849D01*
X66340Y37845D01*
X66348Y37839D01*
X66355Y37832D01*
X66364Y37824D01*
X66371Y37815D01*
Y38019D01*
X66441D01*
Y37450D01*
D02*
G37*
G36*
X65873Y37871D02*
X65882Y37871D01*
X65893Y37869D01*
X65905Y37866D01*
X65917Y37863D01*
X65928Y37858D01*
X65930Y37857D01*
X65933Y37856D01*
X65939Y37853D01*
X65946Y37849D01*
X65954Y37844D01*
X65961Y37838D01*
X65969Y37831D01*
X65975Y37823D01*
X65976Y37822D01*
X65978Y37819D01*
X65980Y37815D01*
X65984Y37809D01*
X65988Y37801D01*
X65991Y37792D01*
X65995Y37782D01*
X65997Y37772D01*
Y37771D01*
X65998Y37768D01*
X65999Y37763D01*
X66000Y37756D01*
Y37746D01*
X66001Y37735D01*
X66002Y37721D01*
Y37703D01*
Y37450D01*
X65932D01*
Y37700D01*
Y37701D01*
Y37702D01*
Y37708D01*
Y37715D01*
X65931Y37724D01*
X65930Y37735D01*
X65928Y37745D01*
X65926Y37755D01*
X65923Y37764D01*
Y37765D01*
X65922Y37768D01*
X65919Y37772D01*
X65917Y37777D01*
X65913Y37782D01*
X65908Y37787D01*
X65901Y37793D01*
X65894Y37798D01*
X65893Y37799D01*
X65891Y37801D01*
X65886Y37802D01*
X65880Y37805D01*
X65873Y37807D01*
X65865Y37810D01*
X65855Y37810D01*
X65845Y37811D01*
X65841D01*
X65838Y37810D01*
X65830Y37810D01*
X65819Y37808D01*
X65807Y37804D01*
X65794Y37799D01*
X65781Y37792D01*
X65769Y37782D01*
X65767Y37781D01*
X65764Y37777D01*
X65761Y37773D01*
X65759Y37769D01*
X65756Y37764D01*
X65753Y37759D01*
X65750Y37752D01*
X65746Y37744D01*
X65744Y37735D01*
X65742Y37725D01*
X65740Y37714D01*
X65738Y37703D01*
X65737Y37689D01*
Y37675D01*
Y37450D01*
X65667D01*
Y37863D01*
X65729D01*
Y37804D01*
X65730Y37805D01*
X65732Y37807D01*
X65734Y37810D01*
X65737Y37815D01*
X65742Y37820D01*
X65748Y37825D01*
X65755Y37832D01*
X65763Y37838D01*
X65771Y37844D01*
X65781Y37851D01*
X65792Y37857D01*
X65803Y37861D01*
X65816Y37866D01*
X65830Y37869D01*
X65844Y37871D01*
X65860Y37872D01*
X65867D01*
X65873Y37871D01*
D02*
G37*
G36*
X68555Y36000D02*
X68475D01*
Y36080D01*
X68555D01*
Y36000D01*
D02*
G37*
G36*
X68921D02*
X68851D01*
Y36445D01*
X68850Y36444D01*
X68846Y36441D01*
X68841Y36436D01*
X68833Y36430D01*
X68823Y36423D01*
X68812Y36415D01*
X68799Y36406D01*
X68784Y36397D01*
X68783D01*
X68782Y36396D01*
X68777Y36393D01*
X68769Y36388D01*
X68759Y36383D01*
X68748Y36378D01*
X68735Y36372D01*
X68723Y36366D01*
X68711Y36361D01*
Y36429D01*
X68712D01*
X68713Y36430D01*
X68716Y36431D01*
X68721Y36434D01*
X68726Y36436D01*
X68731Y36439D01*
X68745Y36448D01*
X68762Y36457D01*
X68778Y36468D01*
X68796Y36481D01*
X68813Y36495D01*
X68814Y36496D01*
X68814Y36497D01*
X68817Y36500D01*
X68820Y36502D01*
X68828Y36510D01*
X68837Y36520D01*
X68847Y36532D01*
X68858Y36545D01*
X68867Y36558D01*
X68875Y36572D01*
X68921D01*
Y36000D01*
D02*
G37*
G36*
X68236D02*
X68169D01*
X68014Y36413D01*
X68088D01*
X68177Y36165D01*
Y36165D01*
X68177Y36164D01*
X68178Y36161D01*
X68179Y36159D01*
X68182Y36151D01*
X68185Y36140D01*
X68189Y36128D01*
X68194Y36114D01*
X68198Y36098D01*
X68203Y36082D01*
X68204Y36084D01*
X68205Y36088D01*
X68207Y36095D01*
X68210Y36105D01*
X68214Y36115D01*
X68218Y36129D01*
X68224Y36144D01*
X68229Y36160D01*
X68321Y36413D01*
X68393D01*
X68236Y36000D01*
D02*
G37*
G36*
X64863Y37517D02*
X65143D01*
Y37450D01*
X64787D01*
Y38019D01*
X64863D01*
Y37517D01*
D02*
G37*
G36*
X62940Y37631D02*
Y37630D01*
Y37628D01*
Y37624D01*
Y37620D01*
X62939Y37613D01*
Y37606D01*
X62938Y37591D01*
X62936Y37573D01*
X62933Y37554D01*
X62928Y37536D01*
X62922Y37520D01*
Y37519D01*
X62921Y37518D01*
X62919Y37513D01*
X62915Y37507D01*
X62909Y37498D01*
X62901Y37489D01*
X62892Y37479D01*
X62880Y37469D01*
X62867Y37461D01*
X62865Y37460D01*
X62860Y37457D01*
X62853Y37454D01*
X62842Y37451D01*
X62829Y37447D01*
X62814Y37443D01*
X62798Y37441D01*
X62780Y37440D01*
X62772D01*
X62767Y37441D01*
X62761Y37442D01*
X62754Y37443D01*
X62737Y37446D01*
X62719Y37451D01*
X62700Y37458D01*
X62690Y37463D01*
X62681Y37469D01*
X62673Y37476D01*
X62665Y37483D01*
X62664Y37484D01*
X62663Y37485D01*
X62661Y37488D01*
X62659Y37491D01*
X62655Y37495D01*
X62652Y37501D01*
X62649Y37508D01*
X62645Y37515D01*
X62641Y37523D01*
X62638Y37533D01*
X62635Y37543D01*
X62632Y37555D01*
X62630Y37567D01*
X62627Y37581D01*
X62627Y37595D01*
Y37610D01*
X62695Y37620D01*
Y37620D01*
Y37618D01*
Y37615D01*
X62696Y37610D01*
X62697Y37605D01*
Y37599D01*
X62699Y37585D01*
X62702Y37570D01*
X62706Y37555D01*
X62711Y37542D01*
X62715Y37536D01*
X62719Y37531D01*
X62720Y37531D01*
X62723Y37528D01*
X62728Y37524D01*
X62734Y37520D01*
X62744Y37515D01*
X62753Y37512D01*
X62766Y37508D01*
X62779Y37508D01*
X62784D01*
X62789Y37508D01*
X62796Y37509D01*
X62804Y37511D01*
X62812Y37513D01*
X62820Y37516D01*
X62828Y37520D01*
X62829Y37521D01*
X62832Y37522D01*
X62835Y37526D01*
X62840Y37529D01*
X62844Y37535D01*
X62849Y37541D01*
X62853Y37547D01*
X62856Y37555D01*
Y37556D01*
X62858Y37559D01*
X62859Y37565D01*
X62860Y37573D01*
X62862Y37583D01*
X62863Y37595D01*
X62864Y37610D01*
Y37627D01*
Y38019D01*
X62940D01*
Y37631D01*
D02*
G37*
G36*
X65557Y37450D02*
X65495D01*
Y37510D01*
X65494Y37509D01*
X65492Y37507D01*
X65490Y37503D01*
X65486Y37499D01*
X65481Y37494D01*
X65475Y37488D01*
X65468Y37482D01*
X65460Y37476D01*
X65451Y37469D01*
X65441Y37463D01*
X65430Y37457D01*
X65419Y37452D01*
X65406Y37448D01*
X65393Y37444D01*
X65378Y37442D01*
X65363Y37441D01*
X65357D01*
X65350Y37442D01*
X65341Y37443D01*
X65330Y37444D01*
X65319Y37447D01*
X65307Y37450D01*
X65295Y37455D01*
X65293Y37456D01*
X65290Y37457D01*
X65284Y37461D01*
X65277Y37465D01*
X65269Y37470D01*
X65262Y37476D01*
X65254Y37482D01*
X65248Y37489D01*
X65247Y37490D01*
X65245Y37494D01*
X65243Y37498D01*
X65240Y37504D01*
X65235Y37512D01*
X65232Y37521D01*
X65229Y37531D01*
X65226Y37541D01*
Y37542D01*
X65226Y37545D01*
X65225Y37550D01*
Y37557D01*
X65224Y37567D01*
X65223Y37578D01*
X65222Y37592D01*
Y37607D01*
Y37863D01*
X65292D01*
Y37634D01*
Y37633D01*
Y37631D01*
Y37629D01*
Y37624D01*
Y37615D01*
X65293Y37604D01*
Y37592D01*
X65294Y37579D01*
X65295Y37569D01*
X65296Y37559D01*
Y37559D01*
X65298Y37555D01*
X65300Y37550D01*
X65302Y37544D01*
X65306Y37537D01*
X65311Y37530D01*
X65317Y37523D01*
X65324Y37517D01*
X65325Y37516D01*
X65328Y37514D01*
X65333Y37512D01*
X65339Y37509D01*
X65347Y37506D01*
X65356Y37503D01*
X65365Y37502D01*
X65377Y37501D01*
X65383D01*
X65388Y37502D01*
X65396Y37503D01*
X65405Y37505D01*
X65415Y37508D01*
X65426Y37512D01*
X65436Y37517D01*
X65438Y37517D01*
X65441Y37520D01*
X65446Y37523D01*
X65452Y37528D01*
X65458Y37535D01*
X65465Y37542D01*
X65471Y37550D01*
X65476Y37560D01*
X65477Y37562D01*
X65477Y37565D01*
X65479Y37572D01*
X65481Y37581D01*
X65484Y37592D01*
X65486Y37606D01*
X65486Y37623D01*
X65487Y37642D01*
Y37863D01*
X65557D01*
Y37450D01*
D02*
G37*
%LPC*%
G36*
X67784Y36365D02*
X67779D01*
X67776Y36364D01*
X67767Y36363D01*
X67756Y36360D01*
X67743Y36356D01*
X67729Y36351D01*
X67716Y36342D01*
X67703Y36332D01*
X67701Y36330D01*
X67698Y36326D01*
X67692Y36318D01*
X67686Y36309D01*
X67680Y36297D01*
X67674Y36282D01*
X67669Y36265D01*
X67666Y36246D01*
X67898D01*
Y36247D01*
Y36249D01*
X67897Y36251D01*
Y36254D01*
X67895Y36264D01*
X67893Y36275D01*
X67889Y36288D01*
X67884Y36300D01*
X67878Y36313D01*
X67870Y36323D01*
Y36324D01*
X67869Y36325D01*
X67865Y36330D01*
X67857Y36337D01*
X67847Y36344D01*
X67835Y36351D01*
X67820Y36358D01*
X67803Y36363D01*
X67794Y36364D01*
X67784Y36365D01*
D02*
G37*
G36*
X67305Y36506D02*
X67126D01*
Y36318D01*
X67295D01*
X67305Y36318D01*
X67317Y36319D01*
X67330Y36320D01*
X67343Y36322D01*
X67356Y36324D01*
X67368Y36328D01*
X67369Y36328D01*
X67373Y36330D01*
X67378Y36332D01*
X67384Y36336D01*
X67392Y36341D01*
X67399Y36346D01*
X67406Y36354D01*
X67412Y36362D01*
X67413Y36363D01*
X67415Y36366D01*
X67417Y36371D01*
X67420Y36378D01*
X67423Y36385D01*
X67425Y36393D01*
X67427Y36403D01*
X67428Y36413D01*
Y36414D01*
Y36415D01*
X67427Y36420D01*
X67426Y36427D01*
X67424Y36437D01*
X67420Y36447D01*
X67415Y36458D01*
X67408Y36469D01*
X67398Y36480D01*
X67396Y36481D01*
X67392Y36484D01*
X67386Y36488D01*
X67375Y36493D01*
X67363Y36498D01*
X67346Y36502D01*
X67327Y36505D01*
X67305Y36506D01*
D02*
G37*
G36*
X66735Y37815D02*
X66723D01*
X66719Y37814D01*
X66710Y37812D01*
X66699Y37810D01*
X66687Y37805D01*
X66674Y37797D01*
X66667Y37793D01*
X66661Y37787D01*
X66654Y37782D01*
X66648Y37774D01*
Y37773D01*
X66646Y37773D01*
X66644Y37770D01*
X66643Y37767D01*
X66640Y37763D01*
X66637Y37758D01*
X66634Y37752D01*
X66631Y37745D01*
X66628Y37737D01*
X66625Y37729D01*
X66622Y37719D01*
X66620Y37709D01*
X66618Y37698D01*
X66616Y37685D01*
X66615Y37673D01*
Y37659D01*
Y37658D01*
Y37656D01*
Y37652D01*
Y37647D01*
X66616Y37641D01*
Y37634D01*
X66617Y37618D01*
X66620Y37601D01*
X66623Y37583D01*
X66628Y37566D01*
X66631Y37559D01*
X66634Y37552D01*
Y37551D01*
X66636Y37550D01*
X66638Y37547D01*
X66640Y37544D01*
X66648Y37535D01*
X66658Y37526D01*
X66671Y37516D01*
X66686Y37507D01*
X66695Y37503D01*
X66704Y37501D01*
X66713Y37499D01*
X66724Y37499D01*
X66728D01*
X66732Y37499D01*
X66741Y37501D01*
X66751Y37503D01*
X66764Y37508D01*
X66777Y37515D01*
X66790Y37525D01*
X66797Y37531D01*
X66803Y37538D01*
Y37539D01*
X66805Y37540D01*
X66806Y37542D01*
X66808Y37545D01*
X66811Y37550D01*
X66814Y37555D01*
X66817Y37561D01*
X66820Y37568D01*
X66823Y37576D01*
X66826Y37584D01*
X66829Y37594D01*
X66832Y37605D01*
X66834Y37616D01*
X66835Y37629D01*
X66837Y37643D01*
Y37657D01*
Y37657D01*
Y37660D01*
Y37664D01*
X66836Y37670D01*
Y37676D01*
X66835Y37685D01*
X66833Y37702D01*
X66829Y37721D01*
X66824Y37741D01*
X66816Y37759D01*
X66811Y37768D01*
X66805Y37776D01*
Y37777D01*
X66803Y37778D01*
X66799Y37782D01*
X66792Y37788D01*
X66783Y37796D01*
X66772Y37802D01*
X66759Y37809D01*
X66743Y37813D01*
X66735Y37815D01*
D02*
G37*
G36*
X66264D02*
X66260D01*
X66257Y37814D01*
X66248Y37813D01*
X66237Y37810D01*
X66225Y37806D01*
X66211Y37798D01*
X66198Y37789D01*
X66192Y37782D01*
X66186Y37776D01*
Y37775D01*
X66184Y37774D01*
X66183Y37772D01*
X66181Y37768D01*
X66179Y37764D01*
X66176Y37759D01*
X66174Y37754D01*
X66170Y37747D01*
X66167Y37739D01*
X66165Y37730D01*
X66162Y37720D01*
X66160Y37709D01*
X66158Y37698D01*
X66156Y37685D01*
X66155Y37671D01*
Y37656D01*
Y37655D01*
Y37652D01*
Y37648D01*
X66156Y37643D01*
Y37636D01*
X66156Y37629D01*
X66159Y37611D01*
X66163Y37592D01*
X66169Y37573D01*
X66177Y37554D01*
X66182Y37545D01*
X66188Y37537D01*
X66188D01*
X66189Y37536D01*
X66193Y37531D01*
X66201Y37525D01*
X66210Y37518D01*
X66221Y37511D01*
X66235Y37504D01*
X66250Y37500D01*
X66258Y37499D01*
X66267Y37499D01*
X66271D01*
X66274Y37499D01*
X66283Y37500D01*
X66294Y37503D01*
X66306Y37508D01*
X66319Y37514D01*
X66332Y37523D01*
X66339Y37529D01*
X66345Y37536D01*
Y37536D01*
X66346Y37537D01*
X66348Y37540D01*
X66350Y37543D01*
X66352Y37547D01*
X66355Y37551D01*
X66358Y37558D01*
X66361Y37564D01*
X66365Y37572D01*
X66367Y37580D01*
X66370Y37590D01*
X66373Y37600D01*
X66374Y37611D01*
X66376Y37623D01*
X66378Y37636D01*
Y37650D01*
Y37651D01*
Y37654D01*
Y37658D01*
X66377Y37664D01*
Y37671D01*
X66376Y37679D01*
X66375Y37688D01*
X66374Y37698D01*
X66369Y37717D01*
X66364Y37738D01*
X66355Y37758D01*
X66351Y37766D01*
X66345Y37774D01*
Y37775D01*
X66343Y37776D01*
X66339Y37781D01*
X66332Y37787D01*
X66323Y37795D01*
X66311Y37802D01*
X66297Y37808D01*
X66281Y37813D01*
X66273Y37814D01*
X66264Y37815D01*
D02*
G37*
G36*
X63222D02*
X63217D01*
X63213Y37814D01*
X63204Y37813D01*
X63191Y37810D01*
X63177Y37805D01*
X63162Y37798D01*
X63148Y37788D01*
X63141Y37782D01*
X63134Y37775D01*
Y37774D01*
X63133Y37773D01*
X63131Y37771D01*
X63129Y37768D01*
X63126Y37764D01*
X63124Y37759D01*
X63120Y37752D01*
X63117Y37745D01*
X63114Y37737D01*
X63111Y37729D01*
X63108Y37719D01*
X63106Y37708D01*
X63103Y37697D01*
X63101Y37685D01*
X63101Y37671D01*
X63100Y37657D01*
Y37656D01*
Y37653D01*
Y37649D01*
X63101Y37643D01*
Y37637D01*
X63101Y37629D01*
X63104Y37612D01*
X63108Y37592D01*
X63115Y37573D01*
X63123Y37554D01*
X63129Y37545D01*
X63134Y37537D01*
X63135D01*
X63136Y37536D01*
X63141Y37531D01*
X63148Y37525D01*
X63158Y37518D01*
X63171Y37511D01*
X63185Y37504D01*
X63203Y37500D01*
X63212Y37499D01*
X63222Y37499D01*
X63227D01*
X63231Y37499D01*
X63240Y37501D01*
X63252Y37503D01*
X63265Y37508D01*
X63280Y37515D01*
X63294Y37525D01*
X63301Y37531D01*
X63308Y37538D01*
X63309Y37539D01*
X63310Y37540D01*
X63311Y37542D01*
X63314Y37545D01*
X63316Y37550D01*
X63320Y37555D01*
X63323Y37561D01*
X63326Y37568D01*
X63329Y37576D01*
X63332Y37585D01*
X63335Y37595D01*
X63338Y37606D01*
X63340Y37618D01*
X63342Y37630D01*
X63343Y37644D01*
Y37659D01*
Y37660D01*
Y37662D01*
Y37666D01*
X63343Y37671D01*
Y37678D01*
X63342Y37685D01*
X63339Y37703D01*
X63335Y37721D01*
X63329Y37741D01*
X63320Y37759D01*
X63315Y37768D01*
X63308Y37775D01*
Y37776D01*
X63306Y37777D01*
X63301Y37782D01*
X63294Y37787D01*
X63284Y37795D01*
X63272Y37802D01*
X63257Y37809D01*
X63241Y37813D01*
X63232Y37814D01*
X63222Y37815D01*
D02*
G37*
G36*
X67164D02*
X67160D01*
X67156Y37814D01*
X67147Y37813D01*
X67136Y37810D01*
X67123Y37806D01*
X67109Y37801D01*
X67096Y37792D01*
X67083Y37782D01*
X67081Y37780D01*
X67078Y37776D01*
X67072Y37768D01*
X67067Y37759D01*
X67060Y37747D01*
X67054Y37732D01*
X67049Y37715D01*
X67047Y37696D01*
X67278D01*
Y37697D01*
Y37699D01*
X67277Y37701D01*
Y37704D01*
X67276Y37714D01*
X67273Y37725D01*
X67269Y37738D01*
X67265Y37750D01*
X67258Y37763D01*
X67251Y37773D01*
Y37774D01*
X67249Y37775D01*
X67245Y37780D01*
X67238Y37787D01*
X67228Y37794D01*
X67215Y37801D01*
X67201Y37808D01*
X67183Y37813D01*
X67174Y37814D01*
X67164Y37815D01*
D02*
G37*
G36*
X64065D02*
X64060D01*
X64057Y37814D01*
X64048Y37813D01*
X64037Y37810D01*
X64024Y37806D01*
X64010Y37801D01*
X63997Y37792D01*
X63984Y37782D01*
X63982Y37780D01*
X63979Y37776D01*
X63973Y37768D01*
X63967Y37759D01*
X63961Y37747D01*
X63955Y37732D01*
X63950Y37715D01*
X63947Y37696D01*
X64179D01*
Y37697D01*
Y37699D01*
X64178Y37701D01*
Y37704D01*
X64176Y37714D01*
X64174Y37725D01*
X64170Y37738D01*
X64166Y37750D01*
X64159Y37763D01*
X64152Y37773D01*
Y37774D01*
X64150Y37775D01*
X64146Y37780D01*
X64138Y37787D01*
X64129Y37794D01*
X64116Y37801D01*
X64101Y37808D01*
X64084Y37813D01*
X64075Y37814D01*
X64065Y37815D01*
D02*
G37*
G36*
X67868D02*
X67855D01*
X67852Y37814D01*
X67843Y37813D01*
X67832Y37810D01*
X67819Y37806D01*
X67806Y37798D01*
X67792Y37789D01*
X67786Y37782D01*
X67779Y37776D01*
Y37775D01*
X67778Y37774D01*
X67776Y37772D01*
X67774Y37768D01*
X67772Y37765D01*
X67769Y37760D01*
X67766Y37755D01*
X67764Y37748D01*
X67760Y37741D01*
X67757Y37731D01*
X67755Y37722D01*
X67752Y37713D01*
X67750Y37701D01*
X67749Y37689D01*
X67747Y37677D01*
Y37663D01*
Y37662D01*
Y37660D01*
Y37656D01*
X67748Y37650D01*
Y37643D01*
X67749Y37635D01*
X67751Y37618D01*
X67755Y37598D01*
X67760Y37579D01*
X67769Y37560D01*
X67773Y37552D01*
X67779Y37545D01*
X67781Y37543D01*
X67785Y37539D01*
X67792Y37533D01*
X67801Y37527D01*
X67813Y37519D01*
X67827Y37513D01*
X67843Y37509D01*
X67851Y37508D01*
X67860Y37508D01*
X67865D01*
X67868Y37508D01*
X67877Y37509D01*
X67889Y37513D01*
X67901Y37517D01*
X67915Y37523D01*
X67928Y37532D01*
X67935Y37538D01*
X67941Y37545D01*
Y37545D01*
X67943Y37546D01*
X67945Y37549D01*
X67946Y37552D01*
X67949Y37555D01*
X67952Y37560D01*
X67954Y37566D01*
X67958Y37573D01*
X67961Y37581D01*
X67964Y37589D01*
X67967Y37599D01*
X67969Y37610D01*
X67971Y37620D01*
X67973Y37633D01*
X67974Y37647D01*
Y37661D01*
Y37661D01*
Y37664D01*
Y37668D01*
X67973Y37673D01*
Y37680D01*
X67973Y37687D01*
X67970Y37703D01*
X67966Y37722D01*
X67960Y37741D01*
X67952Y37760D01*
X67946Y37768D01*
X67940Y37776D01*
Y37777D01*
X67939Y37778D01*
X67935Y37782D01*
X67927Y37788D01*
X67917Y37796D01*
X67906Y37802D01*
X67892Y37809D01*
X67876Y37813D01*
X67868Y37815D01*
D02*
G37*
G36*
X64857Y36514D02*
X64852D01*
X64849Y36514D01*
X64840Y36512D01*
X64829Y36509D01*
X64817Y36504D01*
X64803Y36497D01*
X64797Y36492D01*
X64790Y36487D01*
X64784Y36481D01*
X64779Y36473D01*
Y36472D01*
X64777Y36471D01*
X64775Y36467D01*
X64773Y36463D01*
X64770Y36457D01*
X64767Y36449D01*
X64765Y36440D01*
X64761Y36430D01*
X64758Y36417D01*
X64755Y36403D01*
X64752Y36388D01*
X64749Y36370D01*
X64747Y36351D01*
X64745Y36329D01*
X64744Y36306D01*
X64743Y36281D01*
Y36279D01*
Y36275D01*
Y36267D01*
X64744Y36258D01*
Y36247D01*
X64745Y36234D01*
X64746Y36220D01*
X64747Y36205D01*
X64752Y36173D01*
X64754Y36157D01*
X64757Y36142D01*
X64761Y36128D01*
X64766Y36115D01*
X64770Y36104D01*
X64776Y36094D01*
Y36093D01*
X64778Y36092D01*
X64782Y36086D01*
X64789Y36079D01*
X64798Y36071D01*
X64811Y36063D01*
X64825Y36055D01*
X64840Y36049D01*
X64849Y36049D01*
X64858Y36048D01*
X64863D01*
X64866Y36049D01*
X64874Y36050D01*
X64886Y36053D01*
X64898Y36059D01*
X64912Y36067D01*
X64919Y36072D01*
X64925Y36079D01*
X64932Y36086D01*
X64938Y36094D01*
Y36095D01*
X64940Y36096D01*
X64942Y36099D01*
X64943Y36103D01*
X64947Y36109D01*
X64949Y36116D01*
X64952Y36124D01*
X64956Y36134D01*
X64958Y36146D01*
X64961Y36160D01*
X64965Y36175D01*
X64967Y36192D01*
X64969Y36211D01*
X64970Y36232D01*
X64972Y36255D01*
Y36281D01*
Y36281D01*
Y36282D01*
Y36286D01*
Y36294D01*
X64971Y36304D01*
Y36314D01*
X64970Y36328D01*
X64970Y36342D01*
X64968Y36357D01*
X64964Y36388D01*
X64961Y36404D01*
X64958Y36419D01*
X64955Y36433D01*
X64950Y36446D01*
X64945Y36458D01*
X64939Y36467D01*
Y36468D01*
X64938Y36469D01*
X64936Y36472D01*
X64933Y36475D01*
X64926Y36482D01*
X64917Y36491D01*
X64905Y36500D01*
X64891Y36507D01*
X64883Y36510D01*
X64875Y36513D01*
X64866Y36514D01*
X64857Y36514D01*
D02*
G37*
G36*
X64148Y36278D02*
X64143D01*
X64140Y36277D01*
X64131Y36277D01*
X64119Y36274D01*
X64106Y36270D01*
X64093Y36264D01*
X64079Y36256D01*
X64067Y36245D01*
X64065Y36244D01*
X64062Y36239D01*
X64057Y36232D01*
X64051Y36223D01*
X64045Y36211D01*
X64040Y36197D01*
X64036Y36181D01*
X64035Y36164D01*
Y36162D01*
Y36159D01*
X64036Y36153D01*
X64036Y36146D01*
X64038Y36137D01*
X64040Y36127D01*
X64044Y36117D01*
X64048Y36106D01*
X64049Y36105D01*
X64050Y36101D01*
X64054Y36096D01*
X64059Y36091D01*
X64064Y36083D01*
X64072Y36076D01*
X64080Y36069D01*
X64090Y36063D01*
X64092Y36062D01*
X64095Y36060D01*
X64101Y36058D01*
X64108Y36055D01*
X64117Y36053D01*
X64128Y36050D01*
X64139Y36049D01*
X64151Y36048D01*
X64156D01*
X64159Y36049D01*
X64169Y36049D01*
X64180Y36052D01*
X64194Y36056D01*
X64208Y36061D01*
X64221Y36069D01*
X64234Y36080D01*
X64236Y36081D01*
X64239Y36086D01*
X64245Y36093D01*
X64250Y36102D01*
X64256Y36114D01*
X64262Y36128D01*
X64265Y36144D01*
X64267Y36161D01*
Y36162D01*
Y36164D01*
Y36166D01*
X64266Y36170D01*
X64265Y36179D01*
X64263Y36191D01*
X64259Y36203D01*
X64253Y36217D01*
X64245Y36231D01*
X64233Y36244D01*
X64231Y36246D01*
X64227Y36249D01*
X64220Y36255D01*
X64210Y36262D01*
X64198Y36267D01*
X64183Y36273D01*
X64166Y36277D01*
X64148Y36278D01*
D02*
G37*
G36*
X63264Y36514D02*
X63259D01*
X63255Y36514D01*
X63246Y36512D01*
X63236Y36509D01*
X63223Y36504D01*
X63210Y36497D01*
X63204Y36492D01*
X63197Y36487D01*
X63191Y36481D01*
X63185Y36473D01*
Y36472D01*
X63184Y36471D01*
X63182Y36467D01*
X63180Y36463D01*
X63177Y36457D01*
X63174Y36449D01*
X63171Y36440D01*
X63168Y36430D01*
X63165Y36417D01*
X63162Y36403D01*
X63158Y36388D01*
X63156Y36370D01*
X63153Y36351D01*
X63152Y36329D01*
X63151Y36306D01*
X63150Y36281D01*
Y36279D01*
Y36275D01*
Y36267D01*
X63151Y36258D01*
Y36247D01*
X63152Y36234D01*
X63153Y36220D01*
X63154Y36205D01*
X63158Y36173D01*
X63161Y36157D01*
X63164Y36142D01*
X63167Y36128D01*
X63172Y36115D01*
X63177Y36104D01*
X63183Y36094D01*
Y36093D01*
X63185Y36092D01*
X63189Y36086D01*
X63196Y36079D01*
X63205Y36071D01*
X63218Y36063D01*
X63232Y36055D01*
X63247Y36049D01*
X63255Y36049D01*
X63264Y36048D01*
X63269D01*
X63273Y36049D01*
X63281Y36050D01*
X63292Y36053D01*
X63305Y36059D01*
X63319Y36067D01*
X63325Y36072D01*
X63332Y36079D01*
X63339Y36086D01*
X63345Y36094D01*
Y36095D01*
X63347Y36096D01*
X63348Y36099D01*
X63350Y36103D01*
X63353Y36109D01*
X63356Y36116D01*
X63359Y36124D01*
X63362Y36134D01*
X63365Y36146D01*
X63368Y36160D01*
X63371Y36175D01*
X63374Y36192D01*
X63376Y36211D01*
X63377Y36232D01*
X63379Y36255D01*
Y36281D01*
Y36281D01*
Y36282D01*
Y36286D01*
Y36294D01*
X63378Y36304D01*
Y36314D01*
X63377Y36328D01*
X63376Y36342D01*
X63375Y36357D01*
X63371Y36388D01*
X63368Y36404D01*
X63365Y36419D01*
X63362Y36433D01*
X63357Y36446D01*
X63352Y36458D01*
X63346Y36467D01*
Y36468D01*
X63344Y36469D01*
X63343Y36472D01*
X63340Y36475D01*
X63333Y36482D01*
X63324Y36491D01*
X63311Y36500D01*
X63297Y36507D01*
X63290Y36510D01*
X63282Y36513D01*
X63273Y36514D01*
X63264Y36514D01*
D02*
G37*
G36*
X64151D02*
X64144D01*
X64137Y36513D01*
X64127Y36511D01*
X64116Y36508D01*
X64105Y36504D01*
X64094Y36497D01*
X64083Y36488D01*
X64082Y36487D01*
X64079Y36484D01*
X64075Y36478D01*
X64071Y36471D01*
X64066Y36462D01*
X64062Y36451D01*
X64059Y36439D01*
X64058Y36426D01*
Y36425D01*
Y36425D01*
X64059Y36420D01*
X64059Y36412D01*
X64061Y36403D01*
X64064Y36393D01*
X64068Y36382D01*
X64075Y36370D01*
X64083Y36360D01*
X64084Y36360D01*
X64088Y36356D01*
X64094Y36352D01*
X64101Y36348D01*
X64111Y36343D01*
X64123Y36339D01*
X64136Y36336D01*
X64151Y36335D01*
X64152D01*
X64157Y36336D01*
X64165Y36337D01*
X64175Y36338D01*
X64185Y36342D01*
X64196Y36346D01*
X64208Y36352D01*
X64217Y36360D01*
X64218Y36361D01*
X64222Y36365D01*
X64226Y36370D01*
X64231Y36378D01*
X64236Y36387D01*
X64240Y36397D01*
X64243Y36410D01*
X64244Y36423D01*
Y36424D01*
Y36425D01*
Y36430D01*
X64242Y36437D01*
X64240Y36446D01*
X64237Y36456D01*
X64232Y36467D01*
X64226Y36477D01*
X64217Y36488D01*
X64216Y36489D01*
X64212Y36492D01*
X64206Y36496D01*
X64199Y36501D01*
X64189Y36506D01*
X64178Y36510D01*
X64165Y36514D01*
X64151Y36514D01*
D02*
G37*
G36*
X65338Y36456D02*
X65159Y36201D01*
X65338D01*
Y36456D01*
D02*
G37*
G36*
X66456Y36308D02*
X66451D01*
X66448Y36307D01*
X66439Y36306D01*
X66428Y36304D01*
X66416Y36300D01*
X66402Y36293D01*
X66388Y36285D01*
X66375Y36273D01*
X66374Y36272D01*
X66370Y36267D01*
X66365Y36260D01*
X66359Y36249D01*
X66353Y36237D01*
X66347Y36221D01*
X66344Y36204D01*
X66342Y36184D01*
Y36183D01*
Y36179D01*
X66343Y36171D01*
X66344Y36162D01*
X66346Y36151D01*
X66349Y36140D01*
X66352Y36128D01*
X66357Y36115D01*
X66358Y36114D01*
X66360Y36109D01*
X66364Y36104D01*
X66369Y36096D01*
X66374Y36089D01*
X66382Y36080D01*
X66390Y36072D01*
X66400Y36065D01*
X66402Y36064D01*
X66405Y36063D01*
X66411Y36059D01*
X66418Y36057D01*
X66426Y36053D01*
X66436Y36050D01*
X66447Y36049D01*
X66458Y36048D01*
X66462D01*
X66466Y36049D01*
X66474Y36049D01*
X66485Y36052D01*
X66496Y36057D01*
X66509Y36063D01*
X66523Y36072D01*
X66529Y36077D01*
X66535Y36083D01*
Y36084D01*
X66537Y36085D01*
X66540Y36090D01*
X66545Y36098D01*
X66551Y36109D01*
X66557Y36123D01*
X66562Y36139D01*
X66565Y36158D01*
X66567Y36180D01*
Y36181D01*
Y36183D01*
Y36186D01*
X66566Y36190D01*
Y36195D01*
X66565Y36201D01*
X66563Y36214D01*
X66560Y36229D01*
X66554Y36244D01*
X66546Y36259D01*
X66535Y36273D01*
X66533Y36275D01*
X66529Y36279D01*
X66523Y36284D01*
X66513Y36291D01*
X66502Y36297D01*
X66489Y36302D01*
X66473Y36306D01*
X66456Y36308D01*
D02*
G37*
%LPD*%
D67*
X62230Y36906D02*
X68986D01*
X71527Y31575D02*
X71575Y31623D01*
X36575Y66725D02*
X71600D01*
X36576Y31623D02*
Y66725D01*
X36576Y31575D02*
X71527D01*
X71600Y31623D02*
Y66725D01*
D69*
X36576Y43561D02*
D03*
Y45593D02*
D03*
X41656Y44577D02*
D03*
D80*
X54737Y50396D02*
D03*
Y52096D02*
D03*
X53787D02*
D03*
Y50396D02*
D03*
D81*
X56384Y41950D02*
D03*
X57284D02*
D03*
X58184D02*
D03*
X59084D02*
D03*
X56384Y40650D02*
D03*
X57284D02*
D03*
X58184D02*
D03*
X59084D02*
D03*
D82*
X44958Y57804D02*
D03*
Y57404D02*
D03*
X44558Y57804D02*
D03*
Y57404D02*
D03*
X44158Y57804D02*
D03*
Y57404D02*
D03*
D83*
X39062Y37754D02*
D03*
X38662D02*
D03*
X39062Y38154D02*
D03*
X38662D02*
D03*
X39062Y38554D02*
D03*
X38662D02*
D03*
X39062Y38954D02*
D03*
X38662D02*
D03*
D84*
X39878Y55474D02*
D03*
Y56474D02*
D03*
X52324Y50800D02*
D03*
Y51800D02*
D03*
X58182Y53975D02*
D03*
Y54975D02*
D03*
X56658Y53975D02*
D03*
Y54975D02*
D03*
X59207Y42951D02*
D03*
Y43951D02*
D03*
X57175Y42951D02*
D03*
Y43951D02*
D03*
X59084Y39726D02*
D03*
Y38726D02*
D03*
X57302Y38710D02*
D03*
Y39710D02*
D03*
X49327Y34773D02*
D03*
Y35773D02*
D03*
X43917Y33655D02*
D03*
Y32655D02*
D03*
X42774Y33655D02*
D03*
Y32655D02*
D03*
D85*
X64925Y57850D02*
D03*
X63925D02*
D03*
X61225Y57875D02*
D03*
X60225D02*
D03*
X57550D02*
D03*
X56550D02*
D03*
X53950D02*
D03*
X52950D02*
D03*
X54372Y48641D02*
D03*
X55372D02*
D03*
X50825Y57875D02*
D03*
X51825D02*
D03*
X45558Y56334D02*
D03*
X44558D02*
D03*
X66950Y57850D02*
D03*
X65950D02*
D03*
X61225Y59150D02*
D03*
X60225D02*
D03*
X53550Y53175D02*
D03*
X52550D02*
D03*
X57575Y59200D02*
D03*
X56575D02*
D03*
X42053Y55321D02*
D03*
X43053D02*
D03*
X54372Y47625D02*
D03*
X55372D02*
D03*
X56000Y49900D02*
D03*
X57000D02*
D03*
X45025Y48463D02*
D03*
X46025D02*
D03*
X38211Y60833D02*
D03*
X37211D02*
D03*
X39735Y39878D02*
D03*
X38735D02*
D03*
X45533Y39700D02*
D03*
X46533D02*
D03*
D86*
X44196Y53102D02*
D03*
Y54102D02*
D03*
X62625Y57850D02*
D03*
Y58850D02*
D03*
X58875Y57875D02*
D03*
Y58875D02*
D03*
X55225Y57875D02*
D03*
Y58875D02*
D03*
X59452Y53991D02*
D03*
Y54991D02*
D03*
X55515Y53991D02*
D03*
Y54991D02*
D03*
X58250Y50149D02*
D03*
Y49149D02*
D03*
X55270Y41894D02*
D03*
Y40894D02*
D03*
X50470Y34839D02*
D03*
Y35839D02*
D03*
Y34096D02*
D03*
Y33096D02*
D03*
X48514Y38236D02*
D03*
Y37236D02*
D03*
X47549Y38236D02*
D03*
Y37236D02*
D03*
X40767Y39989D02*
D03*
Y38989D02*
D03*
X44196Y58817D02*
D03*
Y59817D02*
D03*
X48387Y63745D02*
D03*
Y64745D02*
D03*
X37313Y36001D02*
D03*
Y35001D02*
D03*
X41656Y52721D02*
D03*
Y53721D02*
D03*
X40640Y52721D02*
D03*
Y53721D02*
D03*
X39624Y52721D02*
D03*
Y53721D02*
D03*
X38608Y52721D02*
D03*
Y53721D02*
D03*
D87*
X69925Y32525D02*
D03*
X70025Y54300D02*
D03*
X70000Y35550D02*
D03*
Y44700D02*
D03*
Y47749D02*
D03*
Y38600D02*
D03*
X70050Y50800D02*
D03*
X41402Y59588D02*
D03*
X37550Y55600D02*
D03*
X37500Y58725D02*
D03*
X70002Y41656D02*
D03*
D88*
X57050Y51050D02*
D03*
X56050D02*
D03*
X37719Y51283D02*
D03*
X38719D02*
D03*
D89*
X47774Y46492D02*
D03*
X47374D02*
D03*
X46974D02*
D03*
X46574D02*
D03*
X46174D02*
D03*
X45774D02*
D03*
X45374D02*
D03*
X44974D02*
D03*
X44574D02*
D03*
X44174D02*
D03*
Y41392D02*
D03*
X44574D02*
D03*
X44974D02*
D03*
X45374D02*
D03*
X45774D02*
D03*
X46174D02*
D03*
X46574D02*
D03*
X46974D02*
D03*
X47374D02*
D03*
X47774D02*
D03*
D90*
X43424Y45742D02*
D03*
Y45342D02*
D03*
Y44942D02*
D03*
Y44542D02*
D03*
Y44142D02*
D03*
Y43742D02*
D03*
Y43342D02*
D03*
Y42942D02*
D03*
Y42542D02*
D03*
Y42142D02*
D03*
X48524D02*
D03*
Y42542D02*
D03*
Y42942D02*
D03*
Y43342D02*
D03*
Y43742D02*
D03*
Y44142D02*
D03*
Y44542D02*
D03*
Y44942D02*
D03*
Y45342D02*
D03*
Y45742D02*
D03*
D91*
X45974Y43942D02*
D03*
D92*
X40386D02*
D03*
X37846D02*
D03*
Y45212D02*
D03*
X39116Y43942D02*
D03*
Y45212D02*
D03*
X40386D02*
D03*
D93*
X37766Y48895D02*
D03*
X40466Y49845D02*
D03*
Y47945D02*
D03*
D94*
X44780Y65024D02*
D03*
X58242Y32360D02*
D03*
X61747Y32334D02*
D03*
D95*
X52107Y36202D02*
D03*
X52607D02*
D03*
X53107D02*
D03*
X53607D02*
D03*
X52107Y33952D02*
D03*
X52607D02*
D03*
X53107D02*
D03*
X53607D02*
D03*
D96*
X51732Y35327D02*
D03*
X53982D02*
D03*
X51732Y34827D02*
D03*
X53982D02*
D03*
D97*
X42774Y34568D02*
D03*
Y36068D02*
D03*
X43917Y34568D02*
D03*
Y36068D02*
D03*
D98*
X46957Y35517D02*
D03*
X46250Y36224D02*
D03*
D99*
X48387Y39675D02*
D03*
X47287D02*
D03*
D100*
X47193Y59896D02*
D03*
X48393D02*
D03*
X45993D02*
D03*
Y62796D02*
D03*
X47193D02*
D03*
X48393D02*
D03*
D101*
X48993Y61346D02*
D03*
X45393D02*
D03*
D102*
X49022Y53340D02*
D03*
D103*
X51122Y54340D02*
D03*
Y53840D02*
D03*
Y53340D02*
D03*
Y52840D02*
D03*
Y52340D02*
D03*
X46922D02*
D03*
Y52840D02*
D03*
Y53340D02*
D03*
Y53840D02*
D03*
Y54340D02*
D03*
D104*
X50022Y51240D02*
D03*
X49522D02*
D03*
X49022D02*
D03*
X48522D02*
D03*
X48022D02*
D03*
Y55440D02*
D03*
X48522D02*
D03*
X49022D02*
D03*
X49522D02*
D03*
X50022D02*
D03*
D105*
X50301Y59993D02*
D03*
X49959Y59054D02*
D03*
D106*
X61684Y63246D02*
D03*
X63119D02*
D03*
X56790Y63150D02*
D03*
X58225D02*
D03*
X67215Y61175D02*
D03*
X68650D02*
D03*
X51215Y61250D02*
D03*
X52650D02*
D03*
X65935Y61175D02*
D03*
X64500D02*
D03*
X63085D02*
D03*
X61650D02*
D03*
X58210Y61250D02*
D03*
X56775D02*
D03*
X55410D02*
D03*
X53975D02*
D03*
D107*
X64450Y64735D02*
D03*
Y63300D02*
D03*
X59919Y62725D02*
D03*
Y61290D02*
D03*
X55423Y64656D02*
D03*
Y63221D02*
D03*
D108*
X68200Y57850D02*
D03*
X49554Y64567D02*
D03*
D109*
X69825Y56375D02*
D03*
Y59325D02*
D03*
X51179Y63092D02*
D03*
Y66042D02*
D03*
D110*
X68656Y62559D02*
D03*
D111*
X70131Y64184D02*
D03*
X67181D02*
D03*
D112*
X38225Y35140D02*
D03*
D113*
X38725D02*
D03*
X39225D02*
D03*
X38225Y35910D02*
D03*
X38725D02*
D03*
X39225D02*
D03*
D114*
X57720Y47771D02*
D03*
X57070Y48521D02*
D03*
D115*
X57845Y47771D02*
D03*
X56945Y47771D02*
D03*
X57845Y48521D02*
D03*
X56945Y48521D02*
D03*
D116*
X57820Y47821D02*
D03*
X56970D02*
D03*
X57820Y48471D02*
D03*
X56970Y48471D02*
D03*
D117*
X57745Y47826D02*
D03*
X57045Y48466D02*
D03*
D118*
X57820Y47731D02*
D03*
X56965D02*
D03*
X57825Y48561D02*
D03*
X56970Y48561D02*
D03*
D119*
X58070Y47821D02*
D03*
X56720Y47821D02*
D03*
X58070Y48471D02*
D03*
X56720D02*
D03*
D120*
X57045Y47822D02*
D03*
X57745Y48470D02*
D03*
D121*
X57070Y47771D02*
D03*
X57720Y48521D02*
D03*
D122*
X57395Y48146D02*
D03*
D123*
X40633Y63805D02*
D03*
X38633D02*
D03*
D124*
X46678Y57853D02*
D03*
X48725Y33075D02*
D03*
X55875Y39250D02*
D03*
X50317Y42520D02*
D03*
X61225Y54300D02*
D03*
X47950Y49600D02*
D03*
X46925Y50700D02*
D03*
X45025Y52225D02*
D03*
X55825Y52700D02*
D03*
X49225Y47000D02*
D03*
X54725Y33000D02*
D03*
X55925Y33675D02*
D03*
X55700Y35075D02*
D03*
X51550Y37650D02*
D03*
X50674Y37160D02*
D03*
X52807Y37541D02*
D03*
X42367Y47342D02*
D03*
X44600Y36875D02*
D03*
X48133Y47422D02*
D03*
X47117Y57023D02*
D03*
X52959Y54991D02*
D03*
X52324Y49403D02*
D03*
X43688Y48387D02*
D03*
X50165Y46101D02*
D03*
X51054Y49149D02*
D03*
X40386Y51308D02*
D03*
X49530Y48641D02*
D03*
X40894Y37846D02*
D03*
X49403Y57912D02*
D03*
X38862Y59182D02*
D03*
X39878Y57277D02*
D03*
X43561Y56388D02*
D03*
X40640Y33528D02*
D03*
X40005Y42926D02*
D03*
X37440Y37084D02*
D03*
X40919Y40742D02*
D03*
X49581Y37160D02*
D03*
X45695Y38608D02*
D03*
X42650Y50000D02*
D03*
X44275Y49750D02*
D03*
X59487Y52273D02*
D03*
X60249Y32334D02*
D03*
X41681Y39421D02*
D03*
X52578Y39548D02*
D03*
X60630Y36246D02*
D03*
X55575Y35865D02*
D03*
X50825Y40386D02*
D03*
X51740Y45212D02*
D03*
X58141Y37821D02*
D03*
X37643Y40132D02*
D03*
X55475Y44050D02*
D03*
X51153Y55372D02*
D03*
M02*
