G04 Layer_Color=16777215*
%FSLAX43Y43*%
%MOMM*%
G71*
G01*
G75*
%ADD67C,0.100*%
G36*
X70184Y36218D02*
Y36200D01*
Y36181D01*
Y36163D01*
Y36145D01*
Y36127D01*
Y36109D01*
X70166D01*
Y36091D01*
X70148D01*
Y36073D01*
X70129D01*
Y36055D01*
X70111D01*
Y36037D01*
X70093D01*
Y36019D01*
X70075D01*
Y36001D01*
X70057D01*
Y35982D01*
Y35964D01*
X70039D01*
Y35946D01*
X70021D01*
Y35928D01*
X70003D01*
Y35910D01*
X69985D01*
Y35892D01*
X69967D01*
Y35874D01*
X69949D01*
Y35856D01*
X69930D01*
Y35838D01*
X69912D01*
Y35820D01*
X69894D01*
Y35802D01*
X69876D01*
Y35784D01*
X69858D01*
Y35765D01*
X69840D01*
Y35747D01*
X69822D01*
Y35729D01*
X69804D01*
Y35711D01*
X69786D01*
Y35693D01*
X69768D01*
Y35675D01*
X69750D01*
Y35657D01*
X69731D01*
Y35639D01*
X69713D01*
Y35621D01*
X69695D01*
Y35603D01*
X69677D01*
Y35585D01*
X69659D01*
Y35566D01*
X69641D01*
Y35548D01*
X69623D01*
Y35530D01*
X69605D01*
Y35512D01*
X69587D01*
Y35494D01*
X69569D01*
Y35476D01*
X69551D01*
Y35458D01*
X69533D01*
Y35440D01*
X69514D01*
Y35422D01*
Y35404D01*
Y35386D01*
Y35368D01*
Y35349D01*
Y35331D01*
Y35313D01*
Y35295D01*
Y35277D01*
Y35259D01*
Y35241D01*
Y35223D01*
Y35205D01*
Y35187D01*
Y35169D01*
Y35150D01*
Y35132D01*
Y35114D01*
Y35096D01*
X69315D01*
Y35078D01*
Y35060D01*
Y35042D01*
X69297D01*
Y35024D01*
Y35006D01*
Y34988D01*
Y34970D01*
Y34951D01*
Y34933D01*
Y34915D01*
Y34897D01*
Y34879D01*
Y34861D01*
Y34843D01*
X69279D01*
Y34825D01*
Y34807D01*
Y34789D01*
Y34771D01*
Y34752D01*
Y34734D01*
Y34716D01*
Y34698D01*
Y34680D01*
Y34662D01*
Y34644D01*
X69261D01*
Y34626D01*
Y34608D01*
Y34590D01*
Y34572D01*
Y34554D01*
Y34535D01*
Y34517D01*
Y34499D01*
Y34481D01*
Y34463D01*
X69243D01*
Y34445D01*
Y34427D01*
Y34409D01*
Y34391D01*
Y34373D01*
Y34355D01*
Y34336D01*
Y34318D01*
Y34300D01*
Y34282D01*
Y34264D01*
X69225D01*
Y34246D01*
Y34228D01*
Y34210D01*
Y34192D01*
Y34174D01*
Y34156D01*
Y34137D01*
Y34119D01*
Y34101D01*
Y34083D01*
Y34065D01*
X69207D01*
Y34047D01*
Y34029D01*
Y34011D01*
Y33993D01*
Y33975D01*
Y33957D01*
Y33939D01*
Y33920D01*
X69225D01*
Y33902D01*
X69243D01*
Y33884D01*
X69261D01*
Y33866D01*
X69279D01*
Y33848D01*
X69297D01*
Y33830D01*
X69315D01*
Y33812D01*
X69334D01*
Y33794D01*
X69352D01*
Y33776D01*
X69370D01*
Y33758D01*
X69388D01*
Y33740D01*
X69406D01*
Y33721D01*
X69424D01*
Y33703D01*
X69442D01*
Y33685D01*
Y33667D01*
X69460D01*
Y33649D01*
X69478D01*
Y33631D01*
X69496D01*
Y33613D01*
X69514D01*
Y33595D01*
X69533D01*
Y33577D01*
X69551D01*
Y33559D01*
X69569D01*
Y33541D01*
X69587D01*
Y33522D01*
X69605D01*
Y33504D01*
X69623D01*
Y33486D01*
X69641D01*
Y33468D01*
X69659D01*
Y33450D01*
X69677D01*
Y33432D01*
X69695D01*
Y33414D01*
X69713D01*
Y33396D01*
X69731D01*
Y33378D01*
X69750D01*
Y33360D01*
X69768D01*
Y33342D01*
X69786D01*
Y33324D01*
Y33305D01*
X69804D01*
Y33287D01*
X69822D01*
Y33269D01*
X69840D01*
Y33251D01*
X69858D01*
Y33233D01*
X69876D01*
Y33215D01*
X69894D01*
Y33197D01*
X69912D01*
Y33179D01*
X69930D01*
Y33161D01*
X69949D01*
Y33143D01*
X69967D01*
Y33125D01*
X69985D01*
Y33106D01*
X70003D01*
Y33088D01*
X70021D01*
Y33070D01*
Y33052D01*
X70003D01*
Y33034D01*
X69967D01*
Y33016D01*
X69930D01*
Y33034D01*
X69912D01*
Y33052D01*
X69894D01*
Y33070D01*
X69876D01*
Y33088D01*
X69858D01*
Y33106D01*
X69840D01*
Y33125D01*
X69822D01*
Y33143D01*
Y33161D01*
X69804D01*
Y33179D01*
X69786D01*
Y33197D01*
X69768D01*
Y33215D01*
X69750D01*
Y33233D01*
X69731D01*
Y33251D01*
X69713D01*
Y33269D01*
X69695D01*
Y33287D01*
X69677D01*
Y33305D01*
X69659D01*
Y33324D01*
X69641D01*
Y33342D01*
X69623D01*
Y33360D01*
X69605D01*
Y33378D01*
X69587D01*
Y33396D01*
X69569D01*
Y33414D01*
X69551D01*
Y33432D01*
X69533D01*
Y33450D01*
X69514D01*
Y33468D01*
X69496D01*
Y33486D01*
Y33504D01*
X69478D01*
Y33522D01*
X69460D01*
Y33541D01*
X69442D01*
Y33559D01*
X69424D01*
Y33577D01*
X69406D01*
Y33595D01*
X69388D01*
Y33577D01*
Y33559D01*
Y33541D01*
Y33522D01*
Y33504D01*
Y33486D01*
X69370D01*
Y33468D01*
Y33450D01*
X69352D01*
Y33432D01*
Y33414D01*
X69334D01*
Y33396D01*
X69315D01*
Y33378D01*
X69297D01*
Y33360D01*
X69261D01*
Y33342D01*
X69243D01*
Y33324D01*
X69171D01*
Y33305D01*
X69080D01*
Y33324D01*
X69008D01*
Y33342D01*
X68972D01*
Y33360D01*
X68954D01*
Y33378D01*
X68936D01*
Y33396D01*
X68918D01*
Y33414D01*
X68899D01*
Y33432D01*
Y33450D01*
X68266D01*
Y33432D01*
Y33414D01*
Y33396D01*
Y33378D01*
Y33360D01*
Y33342D01*
Y33324D01*
Y33305D01*
X68085D01*
Y33324D01*
Y33342D01*
Y33360D01*
Y33378D01*
Y33396D01*
Y33414D01*
Y33432D01*
Y33450D01*
X68067D01*
Y33468D01*
X68049D01*
Y33486D01*
Y33504D01*
X68031D01*
Y33522D01*
Y33541D01*
Y33559D01*
Y33577D01*
Y33595D01*
Y33613D01*
Y33631D01*
Y33649D01*
Y33667D01*
Y33685D01*
Y33703D01*
Y33721D01*
X68013D01*
Y33740D01*
Y33758D01*
Y33776D01*
Y33794D01*
Y33812D01*
Y33830D01*
Y33848D01*
Y33866D01*
Y33884D01*
X67995D01*
Y33866D01*
X67977D01*
Y33848D01*
X67959D01*
Y33830D01*
X67941D01*
Y33812D01*
X67923D01*
Y33794D01*
X67905D01*
Y33776D01*
X67886D01*
Y33758D01*
X67868D01*
Y33740D01*
X67850D01*
Y33721D01*
X67832D01*
Y33703D01*
X67814D01*
Y33685D01*
X67796D01*
Y33667D01*
X67778D01*
Y33649D01*
X67760D01*
Y33631D01*
X67742D01*
Y33613D01*
X67724D01*
Y33595D01*
X67706D01*
Y33577D01*
X67687D01*
Y33559D01*
X67669D01*
Y33541D01*
X67651D01*
Y33522D01*
X67633D01*
Y33504D01*
X67615D01*
Y33486D01*
X67597D01*
Y33468D01*
X67579D01*
Y33450D01*
X67561D01*
Y33432D01*
X67543D01*
Y33414D01*
X67525D01*
Y33396D01*
X67507D01*
Y33378D01*
X67489D01*
Y33360D01*
X67470D01*
Y33342D01*
X67452D01*
Y33324D01*
X67434D01*
Y33305D01*
X67416D01*
Y33287D01*
X67398D01*
Y33269D01*
X67380D01*
Y33251D01*
X67362D01*
Y33233D01*
X67344D01*
Y33215D01*
X67326D01*
Y33197D01*
X67308D01*
Y33179D01*
X67290D01*
Y33161D01*
Y33143D01*
X67271D01*
Y33125D01*
X67253D01*
Y33106D01*
X67235D01*
Y33088D01*
X67217D01*
Y33070D01*
X67199D01*
Y33052D01*
X67181D01*
Y33034D01*
X67163D01*
Y33016D01*
X67145D01*
Y32998D01*
X67109D01*
Y33016D01*
X67091D01*
Y33034D01*
X67072D01*
Y33052D01*
Y33070D01*
Y33088D01*
X67091D01*
Y33106D01*
X67109D01*
Y33125D01*
X67127D01*
Y33143D01*
X67145D01*
Y33161D01*
X67163D01*
Y33179D01*
X67181D01*
Y33197D01*
X67199D01*
Y33215D01*
X67217D01*
Y33233D01*
X67235D01*
Y33251D01*
X67253D01*
Y33269D01*
X67271D01*
Y33287D01*
X67290D01*
Y33305D01*
X67308D01*
Y33324D01*
X67326D01*
Y33342D01*
X67344D01*
Y33360D01*
X67362D01*
Y33378D01*
X67380D01*
Y33396D01*
X67398D01*
Y33414D01*
X67416D01*
Y33432D01*
X67434D01*
Y33450D01*
X67452D01*
Y33468D01*
X67470D01*
Y33486D01*
X67489D01*
Y33504D01*
X67507D01*
Y33522D01*
X67525D01*
Y33541D01*
Y33559D01*
X67543D01*
Y33577D01*
X67561D01*
Y33595D01*
X67579D01*
Y33613D01*
X67597D01*
Y33631D01*
X67615D01*
Y33649D01*
X67633D01*
Y33667D01*
X67651D01*
Y33685D01*
X67669D01*
Y33703D01*
X67687D01*
Y33721D01*
X67706D01*
Y33740D01*
X67724D01*
Y33758D01*
X67742D01*
Y33776D01*
X67760D01*
Y33794D01*
X67778D01*
Y33812D01*
X67796D01*
Y33830D01*
X67814D01*
Y33848D01*
X67832D01*
Y33866D01*
X67850D01*
Y33884D01*
X67868D01*
Y33902D01*
X67886D01*
Y33920D01*
X67905D01*
Y33939D01*
X67923D01*
Y33957D01*
X67941D01*
Y33975D01*
X67959D01*
Y33993D01*
X67977D01*
Y34011D01*
X67995D01*
Y34029D01*
Y34047D01*
Y34065D01*
Y34083D01*
Y34101D01*
Y34119D01*
Y34137D01*
X67977D01*
Y34156D01*
Y34174D01*
Y34192D01*
Y34210D01*
Y34228D01*
Y34246D01*
Y34264D01*
Y34282D01*
Y34300D01*
Y34318D01*
Y34336D01*
Y34355D01*
X67959D01*
Y34373D01*
Y34391D01*
Y34409D01*
Y34427D01*
Y34445D01*
Y34463D01*
Y34481D01*
Y34499D01*
Y34517D01*
Y34535D01*
Y34554D01*
X67941D01*
Y34572D01*
Y34590D01*
Y34608D01*
Y34626D01*
Y34644D01*
Y34662D01*
Y34680D01*
Y34698D01*
Y34716D01*
Y34734D01*
Y34752D01*
Y34771D01*
X67923D01*
Y34789D01*
Y34807D01*
Y34825D01*
Y34843D01*
Y34861D01*
Y34879D01*
Y34897D01*
Y34915D01*
Y34933D01*
Y34951D01*
Y34970D01*
Y34988D01*
X67905D01*
Y35006D01*
Y35024D01*
Y35042D01*
Y35060D01*
Y35078D01*
Y35096D01*
Y35114D01*
Y35132D01*
Y35150D01*
Y35169D01*
X67886D01*
Y35187D01*
Y35205D01*
X67868D01*
Y35223D01*
X67850D01*
Y35241D01*
X67832D01*
Y35259D01*
X67814D01*
Y35277D01*
X67796D01*
Y35295D01*
X67778D01*
Y35313D01*
X67760D01*
Y35331D01*
X67742D01*
Y35349D01*
X67724D01*
Y35368D01*
X67706D01*
Y35386D01*
X67687D01*
Y35404D01*
X67669D01*
Y35422D01*
X67651D01*
Y35440D01*
X67633D01*
Y35458D01*
X67615D01*
Y35476D01*
X67597D01*
Y35494D01*
X67579D01*
Y35512D01*
X67561D01*
Y35530D01*
Y35548D01*
X67543D01*
Y35566D01*
X67525D01*
Y35585D01*
X67507D01*
Y35603D01*
X67489D01*
Y35621D01*
X67470D01*
Y35639D01*
X67452D01*
Y35657D01*
X67434D01*
Y35675D01*
X67416D01*
Y35693D01*
X67398D01*
Y35711D01*
X67380D01*
Y35729D01*
X67362D01*
Y35747D01*
X67344D01*
Y35765D01*
X67326D01*
Y35784D01*
X67308D01*
Y35802D01*
X67290D01*
Y35820D01*
X67271D01*
Y35838D01*
X67253D01*
Y35856D01*
X67235D01*
Y35874D01*
Y35892D01*
X67217D01*
Y35910D01*
X67199D01*
Y35928D01*
X67181D01*
Y35946D01*
X67163D01*
Y35964D01*
X67145D01*
Y35982D01*
X67127D01*
Y36001D01*
X67109D01*
Y36019D01*
X67091D01*
Y36037D01*
X67072D01*
Y36055D01*
X67054D01*
Y36073D01*
X67036D01*
Y36091D01*
X67018D01*
Y36109D01*
Y36127D01*
Y36145D01*
Y36163D01*
Y36181D01*
Y36200D01*
Y36218D01*
Y36236D01*
X67036D01*
Y36218D01*
X67054D01*
Y36200D01*
X67072D01*
Y36181D01*
X67091D01*
Y36163D01*
X67109D01*
Y36145D01*
Y36127D01*
X67127D01*
Y36109D01*
X67145D01*
Y36091D01*
X67163D01*
Y36073D01*
X67181D01*
Y36055D01*
X67199D01*
Y36037D01*
X67217D01*
Y36019D01*
X67235D01*
Y36001D01*
X67253D01*
Y35982D01*
X67271D01*
Y35964D01*
X67290D01*
Y35946D01*
X67308D01*
Y35928D01*
X67326D01*
Y35910D01*
X67344D01*
Y35892D01*
X67362D01*
Y35874D01*
X67380D01*
Y35856D01*
X67398D01*
Y35838D01*
X67416D01*
Y35820D01*
X67434D01*
Y35802D01*
X67452D01*
Y35784D01*
Y35765D01*
X67470D01*
Y35747D01*
X67489D01*
Y35729D01*
X67507D01*
Y35711D01*
X67525D01*
Y35693D01*
X67543D01*
Y35675D01*
X67561D01*
Y35657D01*
X67579D01*
Y35639D01*
X67597D01*
Y35621D01*
X67615D01*
Y35603D01*
X67633D01*
Y35585D01*
X67651D01*
Y35566D01*
X67669D01*
Y35548D01*
X67687D01*
Y35530D01*
X67706D01*
Y35512D01*
X67724D01*
Y35494D01*
X67742D01*
Y35476D01*
X67760D01*
Y35458D01*
X67778D01*
Y35440D01*
Y35422D01*
X67796D01*
Y35404D01*
X67814D01*
Y35386D01*
X67832D01*
Y35368D01*
X67850D01*
Y35349D01*
X67868D01*
Y35331D01*
X67886D01*
Y35349D01*
Y35368D01*
Y35386D01*
Y35404D01*
X67868D01*
Y35422D01*
Y35440D01*
Y35458D01*
Y35476D01*
Y35494D01*
Y35512D01*
Y35530D01*
Y35548D01*
Y35566D01*
X67760D01*
Y35585D01*
Y35603D01*
Y35621D01*
Y35639D01*
Y35657D01*
Y35675D01*
X67850D01*
Y35693D01*
X67868D01*
Y35711D01*
Y35729D01*
X67886D01*
Y35747D01*
X67905D01*
Y35765D01*
X67923D01*
Y35784D01*
X67941D01*
Y35802D01*
X67977D01*
Y35820D01*
X67995D01*
Y35838D01*
X68031D01*
Y35856D01*
Y35874D01*
Y35892D01*
Y35910D01*
X68302D01*
Y35928D01*
X68429D01*
Y35946D01*
Y35964D01*
X68899D01*
Y35946D01*
Y35928D01*
X68918D01*
Y35910D01*
X69026D01*
Y35892D01*
X69098D01*
Y35874D01*
X69153D01*
Y35856D01*
X69189D01*
Y35838D01*
X69225D01*
Y35820D01*
X69243D01*
Y35802D01*
X69279D01*
Y35784D01*
X69334D01*
Y35802D01*
X69460D01*
Y35784D01*
X69478D01*
Y35765D01*
X69496D01*
Y35747D01*
X69514D01*
Y35729D01*
Y35711D01*
Y35693D01*
Y35675D01*
Y35657D01*
Y35639D01*
Y35621D01*
Y35603D01*
X69496D01*
Y35585D01*
X69478D01*
Y35566D01*
X69442D01*
Y35548D01*
X69352D01*
Y35530D01*
Y35512D01*
Y35494D01*
Y35476D01*
Y35458D01*
Y35440D01*
X69406D01*
Y35458D01*
X69424D01*
Y35476D01*
X69442D01*
Y35494D01*
X69460D01*
Y35512D01*
Y35530D01*
X69478D01*
Y35548D01*
X69496D01*
Y35566D01*
X69514D01*
Y35585D01*
X69533D01*
Y35603D01*
X69551D01*
Y35621D01*
X69569D01*
Y35639D01*
X69587D01*
Y35657D01*
X69605D01*
Y35675D01*
X69623D01*
Y35693D01*
X69641D01*
Y35711D01*
X69659D01*
Y35729D01*
X69677D01*
Y35747D01*
X69695D01*
Y35765D01*
X69713D01*
Y35784D01*
X69731D01*
Y35802D01*
X69750D01*
Y35820D01*
X69768D01*
Y35838D01*
X69786D01*
Y35856D01*
X69804D01*
Y35874D01*
X69822D01*
Y35892D01*
X69840D01*
Y35910D01*
X69858D01*
Y35928D01*
X69876D01*
Y35946D01*
X69894D01*
Y35964D01*
X69912D01*
Y35982D01*
X69930D01*
Y36001D01*
X69949D01*
Y36019D01*
X69967D01*
Y36037D01*
X69985D01*
Y36055D01*
X70003D01*
Y36073D01*
X70021D01*
Y36091D01*
X70039D01*
Y36109D01*
X70057D01*
Y36127D01*
X70075D01*
Y36145D01*
X70093D01*
Y36163D01*
X70111D01*
Y36181D01*
X70129D01*
Y36200D01*
X70148D01*
Y36218D01*
X70166D01*
Y36236D01*
X70184D01*
Y36218D01*
D02*
G37*
%LPC*%
G36*
X68031Y35042D02*
X68013D01*
Y35024D01*
Y35006D01*
Y34988D01*
X68031D01*
Y34970D01*
Y34951D01*
Y34933D01*
Y34915D01*
Y34897D01*
Y34879D01*
Y34861D01*
Y34843D01*
Y34825D01*
Y34807D01*
Y34789D01*
Y34771D01*
X68049D01*
Y34752D01*
Y34734D01*
Y34716D01*
Y34698D01*
Y34680D01*
Y34662D01*
Y34644D01*
Y34626D01*
Y34608D01*
Y34590D01*
Y34572D01*
X68067D01*
Y34554D01*
Y34535D01*
Y34517D01*
Y34499D01*
Y34481D01*
Y34463D01*
Y34445D01*
Y34427D01*
Y34409D01*
Y34391D01*
Y34373D01*
Y34355D01*
X68085D01*
Y34336D01*
Y34318D01*
Y34300D01*
Y34282D01*
Y34264D01*
Y34246D01*
Y34228D01*
Y34210D01*
Y34192D01*
Y34174D01*
Y34156D01*
X68104D01*
Y34137D01*
X68122D01*
Y34156D01*
X68140D01*
Y34174D01*
X68158D01*
Y34192D01*
X68176D01*
Y34210D01*
X68194D01*
Y34228D01*
X68212D01*
Y34246D01*
X68230D01*
Y34264D01*
X68248D01*
Y34282D01*
X68266D01*
Y34300D01*
X68284D01*
Y34318D01*
X68302D01*
Y34336D01*
X68321D01*
Y34355D01*
X68339D01*
Y34373D01*
X68357D01*
Y34391D01*
X68375D01*
Y34409D01*
X68393D01*
Y34427D01*
X68411D01*
Y34445D01*
X68429D01*
Y34463D01*
X68447D01*
Y34481D01*
X68465D01*
Y34499D01*
X68483D01*
Y34517D01*
X68501D01*
Y34535D01*
Y34554D01*
X68483D01*
Y34572D01*
X68465D01*
Y34590D01*
X68447D01*
Y34608D01*
X68429D01*
Y34626D01*
X68411D01*
Y34644D01*
X68393D01*
Y34662D01*
X68375D01*
Y34680D01*
X68357D01*
Y34698D01*
X68339D01*
Y34716D01*
X68321D01*
Y34734D01*
X68302D01*
Y34752D01*
X68284D01*
Y34771D01*
X68266D01*
Y34789D01*
X68248D01*
Y34807D01*
X68230D01*
Y34825D01*
X68212D01*
Y34843D01*
X68194D01*
Y34861D01*
Y34879D01*
X68176D01*
Y34897D01*
X68158D01*
Y34915D01*
X68140D01*
Y34933D01*
X68122D01*
Y34951D01*
X68104D01*
Y34970D01*
X68085D01*
Y34988D01*
X68067D01*
Y35006D01*
X68049D01*
Y35024D01*
X68031D01*
Y35042D01*
D02*
G37*
G36*
X69207Y35096D02*
X69171D01*
Y35078D01*
X69153D01*
Y35060D01*
X69135D01*
Y35042D01*
Y35024D01*
X69116D01*
Y35006D01*
X69098D01*
Y34988D01*
X69080D01*
Y34970D01*
X69062D01*
Y34951D01*
X69044D01*
Y34933D01*
X69026D01*
Y34915D01*
X69008D01*
Y34897D01*
X68990D01*
Y34879D01*
X68972D01*
Y34861D01*
X68954D01*
Y34843D01*
X68936D01*
Y34825D01*
X68918D01*
Y34807D01*
X68899D01*
Y34789D01*
X68881D01*
Y34771D01*
X68863D01*
Y34752D01*
X68845D01*
Y34734D01*
X68827D01*
Y34716D01*
X68809D01*
Y34698D01*
X68791D01*
Y34680D01*
X68773D01*
Y34662D01*
X68755D01*
Y34644D01*
X68737D01*
Y34626D01*
X68719D01*
Y34608D01*
X68700D01*
Y34590D01*
X68682D01*
Y34572D01*
X68664D01*
Y34554D01*
X68646D01*
Y34535D01*
Y34517D01*
X68664D01*
Y34499D01*
X68682D01*
Y34481D01*
X68700D01*
Y34463D01*
X68719D01*
Y34445D01*
X68737D01*
Y34427D01*
X68755D01*
Y34409D01*
X68773D01*
Y34391D01*
X68791D01*
Y34373D01*
Y34355D01*
X68809D01*
Y34336D01*
X68827D01*
Y34318D01*
X68845D01*
Y34300D01*
X68863D01*
Y34282D01*
X68881D01*
Y34264D01*
X68899D01*
Y34246D01*
X68918D01*
Y34228D01*
X68936D01*
Y34210D01*
X68954D01*
Y34192D01*
X68972D01*
Y34174D01*
X68990D01*
Y34156D01*
X69008D01*
Y34137D01*
X69026D01*
Y34119D01*
X69044D01*
Y34101D01*
X69062D01*
Y34083D01*
X69080D01*
Y34065D01*
X69098D01*
Y34083D01*
X69116D01*
Y34101D01*
Y34119D01*
Y34137D01*
Y34156D01*
Y34174D01*
Y34192D01*
Y34210D01*
Y34228D01*
Y34246D01*
Y34264D01*
X69135D01*
Y34282D01*
Y34300D01*
Y34318D01*
Y34336D01*
Y34355D01*
Y34373D01*
Y34391D01*
Y34409D01*
Y34427D01*
Y34445D01*
Y34463D01*
X69153D01*
Y34481D01*
Y34499D01*
Y34517D01*
Y34535D01*
Y34554D01*
Y34572D01*
Y34590D01*
Y34608D01*
Y34626D01*
Y34644D01*
Y34662D01*
X69171D01*
Y34680D01*
Y34698D01*
Y34716D01*
Y34734D01*
Y34752D01*
Y34771D01*
Y34789D01*
Y34807D01*
Y34825D01*
Y34843D01*
Y34861D01*
X69189D01*
Y34879D01*
Y34897D01*
Y34915D01*
Y34933D01*
Y34951D01*
Y34970D01*
Y34988D01*
Y35006D01*
Y35024D01*
Y35042D01*
X69207D01*
Y35060D01*
Y35078D01*
Y35096D01*
D02*
G37*
G36*
X69171Y33703D02*
X69080D01*
Y33685D01*
X69044D01*
Y33667D01*
X69026D01*
Y33649D01*
X69008D01*
Y33631D01*
Y33613D01*
Y33595D01*
Y33577D01*
Y33559D01*
Y33541D01*
Y33522D01*
X69026D01*
Y33504D01*
X69044D01*
Y33486D01*
X69062D01*
Y33468D01*
X69098D01*
Y33450D01*
X69153D01*
Y33468D01*
X69189D01*
Y33486D01*
X69207D01*
Y33504D01*
X69171D01*
Y33486D01*
X69080D01*
Y33504D01*
X69044D01*
Y33522D01*
Y33541D01*
X69026D01*
Y33559D01*
Y33577D01*
Y33595D01*
Y33613D01*
Y33631D01*
X69044D01*
Y33649D01*
X69062D01*
Y33667D01*
X69098D01*
Y33685D01*
X69153D01*
Y33667D01*
X69189D01*
Y33649D01*
X69207D01*
Y33631D01*
Y33613D01*
X69225D01*
Y33595D01*
Y33577D01*
Y33559D01*
Y33541D01*
X69207D01*
Y33522D01*
Y33504D01*
X69225D01*
Y33522D01*
X69243D01*
Y33541D01*
Y33559D01*
Y33577D01*
Y33595D01*
Y33613D01*
Y33631D01*
X69225D01*
Y33649D01*
Y33667D01*
X69207D01*
Y33685D01*
X69171D01*
Y33703D01*
D02*
G37*
G36*
X68574Y34463D02*
X68556D01*
Y34445D01*
X68538D01*
Y34427D01*
X68520D01*
Y34409D01*
X68501D01*
Y34391D01*
X68483D01*
Y34373D01*
X68465D01*
Y34355D01*
X68447D01*
Y34336D01*
X68429D01*
Y34318D01*
X68411D01*
Y34300D01*
X68393D01*
Y34282D01*
X68375D01*
Y34264D01*
X68357D01*
Y34246D01*
X68339D01*
Y34228D01*
X68321D01*
Y34210D01*
X68302D01*
Y34192D01*
X68284D01*
Y34174D01*
X68266D01*
Y34156D01*
X68248D01*
Y34137D01*
X68230D01*
Y34119D01*
X68212D01*
Y34101D01*
Y34083D01*
X68194D01*
Y34065D01*
X68176D01*
Y34047D01*
X68158D01*
Y34029D01*
X68140D01*
Y34011D01*
X68122D01*
Y33993D01*
X68104D01*
Y33975D01*
Y33957D01*
Y33939D01*
X68122D01*
Y33920D01*
Y33902D01*
Y33884D01*
Y33866D01*
Y33848D01*
Y33830D01*
Y33812D01*
Y33794D01*
Y33776D01*
Y33758D01*
Y33740D01*
Y33721D01*
X68140D01*
Y33703D01*
Y33685D01*
Y33667D01*
Y33649D01*
Y33631D01*
Y33613D01*
Y33595D01*
Y33577D01*
Y33559D01*
X68863D01*
Y33577D01*
Y33595D01*
Y33613D01*
Y33631D01*
Y33649D01*
Y33667D01*
Y33685D01*
X68881D01*
Y33703D01*
Y33721D01*
X68899D01*
Y33740D01*
X68918D01*
Y33758D01*
Y33776D01*
X68954D01*
Y33794D01*
X68972D01*
Y33812D01*
X68990D01*
Y33830D01*
X69044D01*
Y33848D01*
X69080D01*
Y33866D01*
Y33884D01*
X69098D01*
Y33902D01*
Y33920D01*
X69080D01*
Y33939D01*
X69062D01*
Y33957D01*
X69044D01*
Y33975D01*
X69026D01*
Y33993D01*
X69008D01*
Y34011D01*
X68990D01*
Y34029D01*
X68972D01*
Y34047D01*
X68954D01*
Y34065D01*
X68936D01*
Y34083D01*
X68918D01*
Y34101D01*
X68899D01*
Y34119D01*
X68881D01*
Y34137D01*
X68863D01*
Y34156D01*
X68845D01*
Y34174D01*
Y34192D01*
X68827D01*
Y34210D01*
X68809D01*
Y34228D01*
X68791D01*
Y34246D01*
X68773D01*
Y34264D01*
X68755D01*
Y34282D01*
X68737D01*
Y34300D01*
X68719D01*
Y34318D01*
X68700D01*
Y34336D01*
X68682D01*
Y34355D01*
X68664D01*
Y34373D01*
X68646D01*
Y34391D01*
X68628D01*
Y34409D01*
X68610D01*
Y34427D01*
X68592D01*
Y34445D01*
X68574D01*
Y34463D01*
D02*
G37*
G36*
X69243Y35548D02*
X67977D01*
Y35530D01*
Y35512D01*
Y35494D01*
Y35476D01*
Y35458D01*
Y35440D01*
Y35422D01*
Y35404D01*
X67995D01*
Y35386D01*
Y35368D01*
Y35349D01*
Y35331D01*
Y35313D01*
Y35295D01*
Y35277D01*
Y35259D01*
Y35241D01*
Y35223D01*
Y35205D01*
X68013D01*
Y35187D01*
X68031D01*
Y35169D01*
X68049D01*
Y35150D01*
X68067D01*
Y35132D01*
X68085D01*
Y35114D01*
X68104D01*
Y35096D01*
X68122D01*
Y35078D01*
Y35060D01*
X68140D01*
Y35042D01*
X68158D01*
Y35024D01*
X68176D01*
Y35006D01*
X68194D01*
Y34988D01*
X68212D01*
Y34970D01*
X68230D01*
Y34951D01*
X68248D01*
Y34933D01*
X68266D01*
Y34915D01*
X68284D01*
Y34897D01*
X68302D01*
Y34879D01*
X68321D01*
Y34861D01*
X68339D01*
Y34843D01*
X68357D01*
Y34825D01*
X68375D01*
Y34807D01*
X68393D01*
Y34789D01*
X68411D01*
Y34771D01*
X68429D01*
Y34752D01*
X68447D01*
Y34734D01*
Y34716D01*
X68465D01*
Y34698D01*
X68483D01*
Y34680D01*
X68501D01*
Y34662D01*
X68520D01*
Y34644D01*
X68538D01*
Y34626D01*
X68556D01*
Y34608D01*
X68574D01*
Y34626D01*
X68592D01*
Y34644D01*
X68610D01*
Y34662D01*
X68628D01*
Y34680D01*
X68646D01*
Y34698D01*
X68664D01*
Y34716D01*
X68682D01*
Y34734D01*
X68700D01*
Y34752D01*
X68719D01*
Y34771D01*
X68737D01*
Y34789D01*
X68755D01*
Y34807D01*
X68773D01*
Y34825D01*
X68791D01*
Y34843D01*
X68809D01*
Y34861D01*
X68827D01*
Y34879D01*
X68845D01*
Y34897D01*
X68863D01*
Y34915D01*
X68881D01*
Y34933D01*
X68429D01*
Y34951D01*
Y34970D01*
Y34988D01*
Y35006D01*
Y35024D01*
Y35042D01*
Y35060D01*
Y35078D01*
Y35096D01*
Y35114D01*
Y35132D01*
X68990D01*
Y35114D01*
Y35096D01*
Y35078D01*
Y35060D01*
Y35042D01*
X69008D01*
Y35060D01*
X69026D01*
Y35078D01*
X69044D01*
Y35096D01*
X69062D01*
Y35114D01*
X69080D01*
Y35132D01*
X69098D01*
Y35150D01*
X69116D01*
Y35169D01*
X69135D01*
Y35187D01*
X69153D01*
Y35205D01*
X69171D01*
Y35223D01*
X69189D01*
Y35241D01*
Y35259D01*
Y35277D01*
Y35295D01*
Y35313D01*
Y35331D01*
Y35349D01*
Y35368D01*
Y35386D01*
Y35404D01*
Y35422D01*
Y35440D01*
X69243D01*
Y35458D01*
Y35476D01*
Y35494D01*
Y35512D01*
Y35530D01*
Y35548D01*
D02*
G37*
G36*
X68429Y35820D02*
X68339D01*
Y35802D01*
X68230D01*
Y35784D01*
X68212D01*
Y35765D01*
Y35747D01*
Y35729D01*
Y35711D01*
Y35693D01*
Y35675D01*
X69225D01*
Y35693D01*
X69207D01*
Y35711D01*
X69189D01*
Y35729D01*
X69153D01*
Y35747D01*
X69116D01*
Y35765D01*
X69062D01*
Y35784D01*
X69008D01*
Y35802D01*
X68899D01*
Y35784D01*
Y35765D01*
Y35747D01*
Y35729D01*
X68429D01*
Y35747D01*
Y35765D01*
Y35784D01*
Y35802D01*
Y35820D01*
D02*
G37*
G36*
X68791Y35856D02*
X68538D01*
Y35838D01*
X68791D01*
Y35856D01*
D02*
G37*
G36*
X69424Y35331D02*
X69406D01*
Y35313D01*
X69388D01*
Y35295D01*
X69370D01*
Y35277D01*
X69352D01*
Y35259D01*
X69334D01*
Y35241D01*
X69315D01*
Y35223D01*
Y35205D01*
X69424D01*
Y35223D01*
Y35241D01*
Y35259D01*
Y35277D01*
Y35295D01*
Y35313D01*
Y35331D01*
D02*
G37*
G36*
X68031Y35711D02*
X68013D01*
Y35693D01*
X67995D01*
Y35675D01*
X68031D01*
Y35693D01*
Y35711D01*
D02*
G37*
%LPD*%
D67*
X71527Y31575D02*
X71575Y31623D01*
X36575Y66725D02*
X71600D01*
X36576Y31623D02*
Y66725D01*
X36576Y31575D02*
X71527D01*
X71600Y31623D02*
Y66725D01*
M02*
