G04 Layer_Physical_Order=3*
G04 Layer_Color=553216*
%FSLAX43Y43*%
%MOMM*%
G71*
G01*
G75*
%ADD65C,1.016*%
%ADD67C,0.100*%
%ADD71C,1.716*%
%ADD73C,1.727*%
%ADD74C,1.316*%
G04:AMPARAMS|DCode=75|XSize=1.824mm|YSize=1.824mm|CornerRadius=0mm|HoleSize=0mm|Usage=FLASHONLY|Rotation=0.000|XOffset=0mm|YOffset=0mm|HoleType=Round|Shape=Relief|Width=0.254mm|Gap=0.254mm|Entries=4|*
%AMTHD75*
7,0,0,1.824,1.316,0.254,45*
%
%ADD75THD75*%
G36*
X44875Y45325D02*
X47200D01*
Y42825D01*
X47275Y42750D01*
X47100Y42575D01*
X44975D01*
Y45225D01*
X44875Y45325D01*
X44850D01*
X44700Y45475D01*
Y45500D01*
X44875Y45325D01*
D02*
G37*
G36*
X49300Y53375D02*
X49425D01*
Y53250D01*
X49075Y52900D01*
X48700Y53275D01*
X48625D01*
Y53400D01*
X48950Y53725D01*
X49300Y53375D01*
D02*
G37*
D65*
X36576Y66650D02*
X36576Y31623D01*
X71575Y31623D01*
Y66650D01*
X36576Y66650D02*
X71575Y66650D01*
D67*
X71527Y31575D02*
X71575Y31623D01*
X36575Y66725D02*
X71600D01*
X36576Y31623D02*
Y66725D01*
X36576Y31575D02*
X71527D01*
X71600Y31623D02*
Y66725D01*
D71*
X40633Y63805D02*
D03*
X38633D02*
D03*
D73*
X36576Y43561D02*
D03*
Y45593D02*
D03*
X41656Y44577D02*
D03*
D74*
X46678Y57853D02*
D03*
X48725Y33075D02*
D03*
X55875Y39250D02*
D03*
X50317Y42520D02*
D03*
X65575Y64725D02*
D03*
X61225Y54300D02*
D03*
X47950Y49600D02*
D03*
X46925Y50700D02*
D03*
X45025Y52225D02*
D03*
X55825Y52700D02*
D03*
X49225Y47000D02*
D03*
X54725Y33000D02*
D03*
X55925Y33675D02*
D03*
X55700Y35075D02*
D03*
X51550Y37650D02*
D03*
X50674Y37160D02*
D03*
X52807Y37541D02*
D03*
X42367Y47342D02*
D03*
X44600Y36875D02*
D03*
X65202Y34112D02*
D03*
X60875Y34300D02*
D03*
X65278Y36906D02*
D03*
X62825Y36700D02*
D03*
X62350Y39650D02*
D03*
X65100Y40157D02*
D03*
Y43104D02*
D03*
X53475Y42500D02*
D03*
X65075Y46126D02*
D03*
X62475Y45900D02*
D03*
X65075Y49200D02*
D03*
X62751Y52685D02*
D03*
X65100Y52705D02*
D03*
X70925Y61025D02*
D03*
X40742Y61468D02*
D03*
X42494Y62992D02*
D03*
X43917Y61341D02*
D03*
X44577Y62941D02*
D03*
X41050Y32375D02*
D03*
X39250Y32400D02*
D03*
X37400Y33700D02*
D03*
Y49875D02*
D03*
X37325Y53800D02*
D03*
X37400Y57250D02*
D03*
X61000Y64675D02*
D03*
X37300Y63550D02*
D03*
X37350Y65875D02*
D03*
X39350D02*
D03*
X41200D02*
D03*
X43500Y65900D02*
D03*
X53025Y65800D02*
D03*
X69825Y57875D02*
D03*
X58674Y53086D02*
D03*
X59975Y51125D02*
D03*
X62175Y50875D02*
D03*
X59950Y48350D02*
D03*
X58900Y45925D02*
D03*
X62525Y42450D02*
D03*
X57800Y34625D02*
D03*
X64450Y32450D02*
D03*
X67375Y32500D02*
D03*
X70950Y32675D02*
D03*
X70975Y35525D02*
D03*
Y38625D02*
D03*
Y41675D02*
D03*
X71000Y44625D02*
D03*
X71025Y47750D02*
D03*
X71000Y50575D02*
D03*
Y54275D02*
D03*
X64825Y56675D02*
D03*
X62950Y56700D02*
D03*
X70150Y66000D02*
D03*
X67225Y65975D02*
D03*
X59625Y65875D02*
D03*
X57125Y65850D02*
D03*
X46250Y65900D02*
D03*
X47307Y64046D02*
D03*
X48875Y65925D02*
D03*
X51150Y64575D02*
D03*
X66825Y56625D02*
D03*
X68656Y64389D02*
D03*
X65837Y62509D02*
D03*
X64450Y65850D02*
D03*
X63225Y64750D02*
D03*
X62050Y65900D02*
D03*
X58775Y64625D02*
D03*
X59925Y63725D02*
D03*
X56600Y64675D02*
D03*
X55400Y65775D02*
D03*
X54225Y64650D02*
D03*
X53475Y63075D02*
D03*
X51950Y56975D02*
D03*
X70850Y62275D02*
D03*
X64750Y55200D02*
D03*
X66325Y59450D02*
D03*
X64425D02*
D03*
X62550Y60050D02*
D03*
X51333Y58928D02*
D03*
X52500Y60025D02*
D03*
X53450Y58900D02*
D03*
X55250Y59925D02*
D03*
X57325Y60050D02*
D03*
X58950D02*
D03*
X66775Y55150D02*
D03*
X62950D02*
D03*
X60725Y60050D02*
D03*
X61100Y56775D02*
D03*
X58850Y56900D02*
D03*
X55625Y56975D02*
D03*
X53550D02*
D03*
X50275D02*
D03*
X48133Y47422D02*
D03*
X47117Y57023D02*
D03*
X52959Y54991D02*
D03*
X52324Y49403D02*
D03*
X43688Y48387D02*
D03*
X50165Y46101D02*
D03*
X45593Y58801D02*
D03*
X40005Y38862D02*
D03*
X51054Y49149D02*
D03*
X49530Y48641D02*
D03*
X46584Y61366D02*
D03*
X47752D02*
D03*
X49403Y57912D02*
D03*
X38862Y59182D02*
D03*
X58233Y51104D02*
D03*
X43561Y56388D02*
D03*
X40640Y33528D02*
D03*
X40437Y35484D02*
D03*
X60579Y55042D02*
D03*
X45695Y38608D02*
D03*
X47396Y34163D02*
D03*
X68580Y34188D02*
D03*
X68478Y36906D02*
D03*
X68580Y43180D02*
D03*
Y46355D02*
D03*
Y49530D02*
D03*
Y52705D02*
D03*
X37338Y46888D02*
D03*
X42250Y51400D02*
D03*
X40996Y54737D02*
D03*
X52275Y48075D02*
D03*
X68580Y40005D02*
D03*
X37490Y42469D02*
D03*
X42650Y50000D02*
D03*
X44275Y49750D02*
D03*
X47074Y45042D02*
D03*
Y43942D02*
D03*
Y42842D02*
D03*
X45974Y45042D02*
D03*
Y43942D02*
D03*
Y42842D02*
D03*
X44874Y45042D02*
D03*
Y43942D02*
D03*
Y42842D02*
D03*
X48472Y52790D02*
D03*
Y53890D02*
D03*
X49572Y52790D02*
D03*
Y53890D02*
D03*
X59487Y52273D02*
D03*
X60249Y32334D02*
D03*
X41681Y39421D02*
D03*
X52578Y39548D02*
D03*
X60630Y36246D02*
D03*
X55575Y35865D02*
D03*
X50825Y40386D02*
D03*
X51740Y45212D02*
D03*
X37643Y40132D02*
D03*
X62778Y48952D02*
D03*
X56032Y46761D02*
D03*
X51153Y55372D02*
D03*
X45150Y32614D02*
D03*
X49450Y38950D02*
D03*
X54075Y54875D02*
D03*
D75*
X40386Y51308D02*
D03*
X40894Y37846D02*
D03*
X39878Y57277D02*
D03*
X40005Y42926D02*
D03*
X37440Y37084D02*
D03*
X40919Y40742D02*
D03*
X49581Y37160D02*
D03*
X58141Y37821D02*
D03*
X55475Y44050D02*
D03*
M02*
