G04 Layer_Color=7318015*
%FSLAX43Y43*%
%MOMM*%
G71*
G01*
G75*
%ADD13R,0.550X0.800*%
%ADD14R,0.400X0.800*%
%ADD15R,0.200X0.200*%
%ADD16C,0.200*%
%ADD17R,0.700X0.550*%
%ADD18R,0.500X0.700*%
%ADD19R,0.700X0.500*%
%ADD20R,1.000X1.600*%
%ADD21R,0.550X0.700*%
%ADD22O,0.200X0.800*%
%ADD23O,0.800X0.200*%
%ADD24R,3.700X3.700*%
%ADD25C,0.787*%
%ADD26R,1.000X0.600*%
%ADD27R,1.600X1.000*%
%ADD28R,0.250X1.000*%
%ADD29R,1.000X0.250*%
%ADD30R,0.700X0.800*%
G04:AMPARAMS|DCode=31|XSize=0.55mm|YSize=0.7mm|CornerRadius=0mm|HoleSize=0mm|Usage=FLASHONLY|Rotation=135.000|XOffset=0mm|YOffset=0mm|HoleType=Round|Shape=Rectangle|*
%AMROTATEDRECTD31*
4,1,4,0.442,0.053,-0.053,-0.442,-0.442,-0.053,0.053,0.442,0.442,0.053,0.0*
%
%ADD31ROTATEDRECTD31*%

%ADD32R,0.500X1.000*%
%ADD33R,0.700X0.900*%
%ADD34R,0.800X0.800*%
%ADD35R,2.600X2.600*%
%ADD36O,0.800X0.250*%
%ADD37O,0.250X0.800*%
G04:AMPARAMS|DCode=38|XSize=0.55mm|YSize=0.7mm|CornerRadius=0mm|HoleSize=0mm|Usage=FLASHONLY|Rotation=250.000|XOffset=0mm|YOffset=0mm|HoleType=Round|Shape=Rectangle|*
%AMROTATEDRECTD38*
4,1,4,-0.235,0.378,0.423,0.139,0.235,-0.378,-0.423,-0.139,-0.235,0.378,0.0*
%
%ADD38ROTATEDRECTD38*%

%ADD39R,0.800X1.000*%
%ADD40R,1.000X0.800*%
%ADD41R,1.050X1.000*%
%ADD42R,2.200X1.050*%
%ADD43R,1.000X1.050*%
%ADD44R,1.050X2.200*%
%ADD45R,0.300X0.520*%
%ADD46R,0.300X0.490*%
G04:AMPARAMS|DCode=47|XSize=0.1mm|YSize=0.05mm|CornerRadius=0mm|HoleSize=0mm|Usage=FLASHONLY|Rotation=225.000|XOffset=0mm|YOffset=0mm|HoleType=Round|Shape=Rectangle|*
%AMROTATEDRECTD47*
4,1,4,0.018,0.053,0.053,0.018,-0.018,-0.053,-0.053,-0.018,0.018,0.053,0.0*
%
%ADD47ROTATEDRECTD47*%

%ADD48R,0.260X0.080*%
%ADD49P,0.184X4X270.0*%
G04:AMPARAMS|DCode=50|XSize=0.255mm|YSize=0.03mm|CornerRadius=0mm|HoleSize=0mm|Usage=FLASHONLY|Rotation=225.000|XOffset=0mm|YOffset=0mm|HoleType=Round|Shape=Rectangle|*
%AMROTATEDRECTD50*
4,1,4,0.080,0.101,0.101,0.080,-0.080,-0.101,-0.101,-0.080,0.080,0.101,0.0*
%
%ADD50ROTATEDRECTD50*%

%ADD51R,0.360X0.030*%
%ADD52R,0.500X0.210*%
G04:AMPARAMS|DCode=53|XSize=0.255mm|YSize=0.03mm|CornerRadius=0mm|HoleSize=0mm|Usage=FLASHONLY|Rotation=135.000|XOffset=0mm|YOffset=0mm|HoleType=Round|Shape=Rectangle|*
%AMROTATEDRECTD53*
4,1,4,0.101,-0.080,0.080,-0.101,-0.101,0.080,-0.080,0.101,0.101,-0.080,0.0*
%
%ADD53ROTATEDRECTD53*%

G04:AMPARAMS|DCode=54|XSize=0.1mm|YSize=0.05mm|CornerRadius=0mm|HoleSize=0mm|Usage=FLASHONLY|Rotation=135.000|XOffset=0mm|YOffset=0mm|HoleType=Round|Shape=Rectangle|*
%AMROTATEDRECTD54*
4,1,4,0.053,-0.018,0.018,-0.053,-0.053,0.018,-0.018,0.053,0.053,-0.018,0.0*
%
%ADD54ROTATEDRECTD54*%

%ADD55P,0.679X4X90.0*%
%ADD67C,0.100*%
D13*
X54737Y50396D02*
D03*
Y52096D02*
D03*
X53787D02*
D03*
Y50396D02*
D03*
D14*
X56384Y41950D02*
D03*
X57284D02*
D03*
X58184D02*
D03*
X59084D02*
D03*
X56384Y40650D02*
D03*
X57284D02*
D03*
X58184D02*
D03*
X59084D02*
D03*
D15*
X44958Y57804D02*
D03*
Y57404D02*
D03*
X44558Y57804D02*
D03*
Y57404D02*
D03*
X44158Y57804D02*
D03*
Y57404D02*
D03*
D16*
X39062Y37754D02*
D03*
X38662D02*
D03*
X39062Y38154D02*
D03*
X38662D02*
D03*
X39062Y38554D02*
D03*
X38662D02*
D03*
X39062Y38954D02*
D03*
X38662D02*
D03*
D17*
X39878Y55474D02*
D03*
Y56474D02*
D03*
X52324Y50800D02*
D03*
Y51800D02*
D03*
X58182Y53975D02*
D03*
Y54975D02*
D03*
X56658Y53975D02*
D03*
Y54975D02*
D03*
X59207Y42951D02*
D03*
Y43951D02*
D03*
X57175Y42951D02*
D03*
Y43951D02*
D03*
X59084Y39726D02*
D03*
Y38726D02*
D03*
X57302Y38710D02*
D03*
Y39710D02*
D03*
X49327Y34773D02*
D03*
Y35773D02*
D03*
X43917Y33655D02*
D03*
Y32655D02*
D03*
X42774Y33655D02*
D03*
Y32655D02*
D03*
D18*
X64925Y57850D02*
D03*
X63925D02*
D03*
X61225Y57875D02*
D03*
X60225D02*
D03*
X57550D02*
D03*
X56550D02*
D03*
X53950D02*
D03*
X52950D02*
D03*
X54372Y48641D02*
D03*
X55372D02*
D03*
X50825Y57875D02*
D03*
X51825D02*
D03*
X45558Y56334D02*
D03*
X44558D02*
D03*
X66950Y57850D02*
D03*
X65950D02*
D03*
X61225Y59150D02*
D03*
X60225D02*
D03*
X53550Y53175D02*
D03*
X52550D02*
D03*
X57575Y59200D02*
D03*
X56575D02*
D03*
X42053Y55321D02*
D03*
X43053D02*
D03*
X54372Y47625D02*
D03*
X55372D02*
D03*
X56000Y49900D02*
D03*
X57000D02*
D03*
X45025Y48463D02*
D03*
X46025D02*
D03*
X38211Y60833D02*
D03*
X37211D02*
D03*
X39735Y39878D02*
D03*
X38735D02*
D03*
X45533Y39700D02*
D03*
X46533D02*
D03*
D19*
X44196Y53102D02*
D03*
Y54102D02*
D03*
X62625Y57850D02*
D03*
Y58850D02*
D03*
X58875Y57875D02*
D03*
Y58875D02*
D03*
X55225Y57875D02*
D03*
Y58875D02*
D03*
X59452Y53991D02*
D03*
Y54991D02*
D03*
X55515Y53991D02*
D03*
Y54991D02*
D03*
X58250Y50149D02*
D03*
Y49149D02*
D03*
X55270Y41894D02*
D03*
Y40894D02*
D03*
X50470Y34839D02*
D03*
Y35839D02*
D03*
Y34096D02*
D03*
Y33096D02*
D03*
X48514Y38236D02*
D03*
Y37236D02*
D03*
X47549Y38236D02*
D03*
Y37236D02*
D03*
X40767Y39989D02*
D03*
Y38989D02*
D03*
X44196Y58817D02*
D03*
Y59817D02*
D03*
X48387Y63745D02*
D03*
Y64745D02*
D03*
X37313Y36001D02*
D03*
Y35001D02*
D03*
X41656Y52721D02*
D03*
Y53721D02*
D03*
X40640Y52721D02*
D03*
Y53721D02*
D03*
X39624Y52721D02*
D03*
Y53721D02*
D03*
X38608Y52721D02*
D03*
Y53721D02*
D03*
D20*
X69925Y32525D02*
D03*
X70025Y54300D02*
D03*
X70000Y35550D02*
D03*
Y44700D02*
D03*
Y47749D02*
D03*
Y38600D02*
D03*
X70050Y50800D02*
D03*
X41402Y59588D02*
D03*
X37550Y55600D02*
D03*
X37500Y58725D02*
D03*
X70002Y41656D02*
D03*
D21*
X57050Y51050D02*
D03*
X56050D02*
D03*
X37719Y51283D02*
D03*
X38719D02*
D03*
D22*
X47774Y46492D02*
D03*
X47374D02*
D03*
X46974D02*
D03*
X46574D02*
D03*
X46174D02*
D03*
X45774D02*
D03*
X45374D02*
D03*
X44974D02*
D03*
X44574D02*
D03*
X44174D02*
D03*
Y41392D02*
D03*
X44574D02*
D03*
X44974D02*
D03*
X45374D02*
D03*
X45774D02*
D03*
X46174D02*
D03*
X46574D02*
D03*
X46974D02*
D03*
X47374D02*
D03*
X47774D02*
D03*
D23*
X43424Y45742D02*
D03*
Y45342D02*
D03*
Y44942D02*
D03*
Y44542D02*
D03*
Y44142D02*
D03*
Y43742D02*
D03*
Y43342D02*
D03*
Y42942D02*
D03*
Y42542D02*
D03*
Y42142D02*
D03*
X48524D02*
D03*
Y42542D02*
D03*
Y42942D02*
D03*
Y43342D02*
D03*
Y43742D02*
D03*
Y44142D02*
D03*
Y44542D02*
D03*
Y44942D02*
D03*
Y45342D02*
D03*
Y45742D02*
D03*
D24*
X45974Y43942D02*
D03*
D25*
X40386D02*
D03*
X37846D02*
D03*
Y45212D02*
D03*
X39116Y43942D02*
D03*
Y45212D02*
D03*
X40386D02*
D03*
D26*
X37766Y48895D02*
D03*
X40466Y49845D02*
D03*
Y47945D02*
D03*
D27*
X44780Y65024D02*
D03*
X58242Y32360D02*
D03*
X61747Y32334D02*
D03*
D28*
X52107Y36202D02*
D03*
X52607D02*
D03*
X53107D02*
D03*
X53607D02*
D03*
X52107Y33952D02*
D03*
X52607D02*
D03*
X53107D02*
D03*
X53607D02*
D03*
D29*
X51732Y35327D02*
D03*
X53982D02*
D03*
X51732Y34827D02*
D03*
X53982D02*
D03*
D30*
X42774Y34568D02*
D03*
Y36068D02*
D03*
X43917Y34568D02*
D03*
Y36068D02*
D03*
D31*
X46957Y35517D02*
D03*
X46250Y36224D02*
D03*
D32*
X48387Y39675D02*
D03*
X47287D02*
D03*
D33*
X47193Y59896D02*
D03*
X48393D02*
D03*
X45993D02*
D03*
Y62796D02*
D03*
X47193D02*
D03*
X48393D02*
D03*
D34*
X48993Y61346D02*
D03*
X45393D02*
D03*
D35*
X49022Y53340D02*
D03*
D36*
X51122Y54340D02*
D03*
Y53840D02*
D03*
Y53340D02*
D03*
Y52840D02*
D03*
Y52340D02*
D03*
X46922D02*
D03*
Y52840D02*
D03*
Y53340D02*
D03*
Y53840D02*
D03*
Y54340D02*
D03*
D37*
X50022Y51240D02*
D03*
X49522D02*
D03*
X49022D02*
D03*
X48522D02*
D03*
X48022D02*
D03*
Y55440D02*
D03*
X48522D02*
D03*
X49022D02*
D03*
X49522D02*
D03*
X50022D02*
D03*
D38*
X50301Y59993D02*
D03*
X49959Y59054D02*
D03*
D39*
X61684Y63246D02*
D03*
X63119D02*
D03*
X56790Y63150D02*
D03*
X58225D02*
D03*
X67215Y61175D02*
D03*
X68650D02*
D03*
X51215Y61250D02*
D03*
X52650D02*
D03*
X65935Y61175D02*
D03*
X64500D02*
D03*
X63085D02*
D03*
X61650D02*
D03*
X58210Y61250D02*
D03*
X56775D02*
D03*
X55410D02*
D03*
X53975D02*
D03*
D40*
X64450Y64735D02*
D03*
Y63300D02*
D03*
X59919Y62725D02*
D03*
Y61290D02*
D03*
X55423Y64656D02*
D03*
Y63221D02*
D03*
D41*
X68200Y57850D02*
D03*
X49554Y64567D02*
D03*
D42*
X69825Y56375D02*
D03*
Y59325D02*
D03*
X51179Y63092D02*
D03*
Y66042D02*
D03*
D43*
X68656Y62559D02*
D03*
D44*
X70131Y64184D02*
D03*
X67181D02*
D03*
D45*
X38225Y35140D02*
D03*
D46*
X38725D02*
D03*
X39225D02*
D03*
X38225Y35910D02*
D03*
X38725D02*
D03*
X39225D02*
D03*
D47*
X57720Y47771D02*
D03*
X57070Y48521D02*
D03*
D48*
X57845Y47771D02*
D03*
X56945Y47771D02*
D03*
X57845Y48521D02*
D03*
X56945Y48521D02*
D03*
D49*
X57820Y47821D02*
D03*
X56970D02*
D03*
X57820Y48471D02*
D03*
X56970Y48471D02*
D03*
D50*
X57745Y47826D02*
D03*
X57045Y48466D02*
D03*
D51*
X57820Y47731D02*
D03*
X56965D02*
D03*
X57825Y48561D02*
D03*
X56970Y48561D02*
D03*
D52*
X58070Y47821D02*
D03*
X56720Y47821D02*
D03*
X58070Y48471D02*
D03*
X56720D02*
D03*
D53*
X57045Y47822D02*
D03*
X57745Y48470D02*
D03*
D54*
X57070Y47771D02*
D03*
X57720Y48521D02*
D03*
D55*
X57395Y48146D02*
D03*
D67*
X71527Y31575D02*
X71575Y31623D01*
X36575Y66725D02*
X71600D01*
X36576Y31623D02*
Y66725D01*
X36576Y31575D02*
X71527D01*
X71600Y31623D02*
Y66725D01*
M02*
