G04 Layer_Color=8150272*
%FSLAX43Y43*%
%MOMM*%
G71*
G01*
G75*
%ADD67C,0.100*%
%ADD69C,0.500*%
%ADD123C,1.203*%
%ADD124C,0.753*%
D67*
X71527Y31575D02*
X71575Y31623D01*
X36575Y66725D02*
X71600D01*
X36576Y31623D02*
Y66725D01*
X36576Y31575D02*
X71527D01*
X71600Y31623D02*
Y66725D01*
D69*
X36576Y43561D02*
D03*
Y45593D02*
D03*
X41656Y44577D02*
D03*
D123*
X40633Y63805D02*
D03*
X38633D02*
D03*
D124*
X46678Y57853D02*
D03*
X48725Y33075D02*
D03*
X55875Y39250D02*
D03*
X50317Y42520D02*
D03*
X61225Y54300D02*
D03*
X47950Y49600D02*
D03*
X46925Y50700D02*
D03*
X45025Y52225D02*
D03*
X55825Y52700D02*
D03*
X49225Y47000D02*
D03*
X54725Y33000D02*
D03*
X55925Y33675D02*
D03*
X55700Y35075D02*
D03*
X51550Y37650D02*
D03*
X50674Y37160D02*
D03*
X52807Y37541D02*
D03*
X42367Y47342D02*
D03*
X44600Y36875D02*
D03*
X48133Y47422D02*
D03*
X47117Y57023D02*
D03*
X52959Y54991D02*
D03*
X52324Y49403D02*
D03*
X43688Y48387D02*
D03*
X50165Y46101D02*
D03*
X51054Y49149D02*
D03*
X40386Y51308D02*
D03*
X49530Y48641D02*
D03*
X40894Y37846D02*
D03*
X49403Y57912D02*
D03*
X38862Y59182D02*
D03*
X39878Y57277D02*
D03*
X43561Y56388D02*
D03*
X40640Y33528D02*
D03*
X40005Y42926D02*
D03*
X37440Y37084D02*
D03*
X40919Y40742D02*
D03*
X49581Y37160D02*
D03*
X45695Y38608D02*
D03*
X42650Y50000D02*
D03*
X44275Y49750D02*
D03*
X59487Y52273D02*
D03*
X60249Y32334D02*
D03*
X41681Y39421D02*
D03*
X52578Y39548D02*
D03*
X60630Y36246D02*
D03*
X55575Y35865D02*
D03*
X50825Y40386D02*
D03*
X51740Y45212D02*
D03*
X58141Y37821D02*
D03*
X37643Y40132D02*
D03*
X55475Y44050D02*
D03*
X51153Y55372D02*
D03*
M02*
