G04 Layer_Color=7318015*
%FSLAX43Y43*%
%MOMM*%
G71*
G01*
G75*
%ADD10R,0.600X0.700*%
%ADD11R,0.600X0.500*%
%ADD12R,0.600X1.000*%
%ADD13C,0.200*%
%ADD14P,0.820X4X270.0*%
%ADD15C,0.100*%
%ADD16R,0.700X0.600*%
%ADD17R,0.500X0.550*%
%ADD18R,0.800X0.400*%
%ADD19O,0.750X0.250*%
%ADD20O,0.250X0.750*%
%ADD21R,2.600X2.600*%
%ADD22R,1.000X0.700*%
%ADD23R,0.900X1.000*%
%ADD24R,3.700X3.700*%
%ADD25O,0.200X0.700*%
%ADD26O,0.700X0.200*%
%ADD27R,0.250X0.250*%
%ADD28R,0.800X0.700*%
%ADD29C,0.787*%
G36*
X30591Y23241D02*
X30241D01*
Y23521D01*
X30461Y23741D01*
X30591D01*
Y23241D01*
D02*
G37*
G36*
X29941Y23521D02*
Y23241D01*
X29591D01*
Y23871D01*
X29941Y23521D01*
D02*
G37*
G36*
X30591Y24111D02*
X30461D01*
X30241Y24331D01*
Y24611D01*
X30591D01*
Y24111D01*
D02*
G37*
G36*
X29941Y24331D02*
X29721Y24111D01*
X29591D01*
Y24611D01*
X29941D01*
Y24331D01*
D02*
G37*
D10*
X29480Y5842D02*
D03*
X30480D02*
D03*
X30464Y25527D02*
D03*
X29464D02*
D03*
X28432Y8763D02*
D03*
X27432D02*
D03*
X34941Y31369D02*
D03*
X35941D02*
D03*
X30210Y7112D02*
D03*
X29210D02*
D03*
X52181Y31369D02*
D03*
X51181D02*
D03*
X54213D02*
D03*
X53213D02*
D03*
X33639Y29591D02*
D03*
X32639D02*
D03*
X35925Y29210D02*
D03*
X34925D02*
D03*
X33639Y28575D02*
D03*
X32639D02*
D03*
X38084Y31750D02*
D03*
X37084D02*
D03*
X33512Y30607D02*
D03*
X32512D02*
D03*
X55515Y19939D02*
D03*
X56515D02*
D03*
X55515Y18923D02*
D03*
X56515D02*
D03*
X26178Y25781D02*
D03*
X27178D02*
D03*
X56372Y30861D02*
D03*
X55372D02*
D03*
X56372Y29718D02*
D03*
X55372D02*
D03*
X31353Y32639D02*
D03*
X30353D02*
D03*
X33036Y38227D02*
D03*
X34036D02*
D03*
X31353Y33655D02*
D03*
X30353D02*
D03*
X35925Y30353D02*
D03*
X34925D02*
D03*
X55007Y36576D02*
D03*
X56007D02*
D03*
X54086D02*
D03*
X53086D02*
D03*
X56118Y37973D02*
D03*
X55118D02*
D03*
X61198Y17272D02*
D03*
X60198D02*
D03*
X61198Y18415D02*
D03*
X60198D02*
D03*
X60087Y21336D02*
D03*
X61087D02*
D03*
D11*
X29218Y8001D02*
D03*
X30218D02*
D03*
X29345Y26797D02*
D03*
X30345D02*
D03*
X32520Y31496D02*
D03*
X33520D02*
D03*
D12*
X25593Y11604D02*
D03*
X27493D02*
D03*
X26543Y14304D02*
D03*
D13*
X28013Y6512D02*
D03*
X27613D02*
D03*
X28013Y6912D02*
D03*
X27613D02*
D03*
X28013Y7312D02*
D03*
X27613D02*
D03*
X28013Y7712D02*
D03*
X27613D02*
D03*
D14*
X30091Y23926D02*
D03*
D15*
X29761Y23469D02*
D03*
X30421Y23443D02*
D03*
Y24358D02*
D03*
X29761Y24383D02*
D03*
D16*
X28321Y26400D02*
D03*
Y25400D02*
D03*
X54356Y14589D02*
D03*
Y13589D02*
D03*
X24892Y38116D02*
D03*
Y39116D02*
D03*
D17*
X26670Y23368D02*
D03*
X28070D02*
D03*
Y24318D02*
D03*
X26670D02*
D03*
D18*
X52944Y27479D02*
D03*
Y28379D02*
D03*
Y29279D02*
D03*
Y30179D02*
D03*
X54244Y27479D02*
D03*
Y28379D02*
D03*
Y29279D02*
D03*
Y30179D02*
D03*
D19*
X32646Y35671D02*
D03*
Y35171D02*
D03*
Y34671D02*
D03*
Y34171D02*
D03*
Y33671D02*
D03*
X36696D02*
D03*
Y34171D02*
D03*
Y34671D02*
D03*
Y35171D02*
D03*
Y35671D02*
D03*
D20*
X33671Y32646D02*
D03*
X34171D02*
D03*
X34671D02*
D03*
X35171D02*
D03*
X35671D02*
D03*
Y36696D02*
D03*
X35171D02*
D03*
X34671D02*
D03*
X34171D02*
D03*
X33671D02*
D03*
D21*
X34671Y34671D02*
D03*
D22*
X29156Y34874D02*
D03*
Y36074D02*
D03*
Y33674D02*
D03*
X26256D02*
D03*
Y34874D02*
D03*
Y36074D02*
D03*
D23*
X27706Y36674D02*
D03*
Y32974D02*
D03*
D24*
X51816Y18669D02*
D03*
D25*
X50016Y21169D02*
D03*
X50416D02*
D03*
X50816D02*
D03*
X51216D02*
D03*
X51616D02*
D03*
X52016D02*
D03*
X52416D02*
D03*
X52816D02*
D03*
X53216D02*
D03*
X53616D02*
D03*
Y16169D02*
D03*
X53216D02*
D03*
X52816D02*
D03*
X52416D02*
D03*
X52016D02*
D03*
X51616D02*
D03*
X51216D02*
D03*
X50816D02*
D03*
X50416D02*
D03*
X50016D02*
D03*
D26*
X54316Y20469D02*
D03*
Y20069D02*
D03*
Y19669D02*
D03*
Y19269D02*
D03*
Y18869D02*
D03*
Y18469D02*
D03*
Y18069D02*
D03*
Y17669D02*
D03*
Y17269D02*
D03*
Y16869D02*
D03*
X49316D02*
D03*
Y17269D02*
D03*
Y17669D02*
D03*
Y18069D02*
D03*
Y18469D02*
D03*
Y18869D02*
D03*
Y19269D02*
D03*
Y19669D02*
D03*
Y20069D02*
D03*
Y20469D02*
D03*
D27*
X53963Y37604D02*
D03*
X53463D02*
D03*
X52963D02*
D03*
X52463D02*
D03*
X53963Y38104D02*
D03*
X52463D02*
D03*
X53963Y38604D02*
D03*
X52463D02*
D03*
X53963Y39104D02*
D03*
X53463D02*
D03*
X52963D02*
D03*
X52463D02*
D03*
D28*
X57658Y18415D02*
D03*
X59158D02*
D03*
X57658Y17272D02*
D03*
X59158D02*
D03*
D29*
X57912Y13589D02*
D03*
X59182D02*
D03*
Y14859D02*
D03*
X60452Y13589D02*
D03*
Y14859D02*
D03*
X57912D02*
D03*
M02*
